<?xml version="1.0" encoding="UTF-8" standalone="no"?>
<!-- Created with Inkscape (http://www.inkscape.org/) -->

<svg
   xmlns:dc="http://purl.org/dc/elements/1.1/"
   xmlns:cc="http://creativecommons.org/ns#"
   xmlns:rdf="http://www.w3.org/1999/02/22-rdf-syntax-ns#"
   xmlns:svg="http://www.w3.org/2000/svg"
   xmlns="http://www.w3.org/2000/svg"
   xmlns:xlink="http://www.w3.org/1999/xlink"
   xmlns:sodipodi="http://sodipodi.sourceforge.net/DTD/sodipodi-0.dtd"
   xmlns:inkscape="http://www.inkscape.org/namespaces/inkscape"
   width="939.80243"
   height="198.69513"
   id="svg3188"
   version="1.1"
   inkscape:version="0.48.0 r9654"
   sodipodi:docname="ccca_horizontal_logo_940x198.svg"
   inkscape:export-filename="/home/martin/projets/ccca/website/typolight/ccca_horizontal_logo.png"
   inkscape:export-xdpi="90.035522"
   inkscape:export-ydpi="90.035522">
  <defs
     id="defs3190">
    <inkscape:perspective
       sodipodi:type="inkscape:persp3d"
       inkscape:vp_x="0 : 526.18109 : 1"
       inkscape:vp_y="0 : 1000 : 0"
       inkscape:vp_z="744.09448 : 526.18109 : 1"
       inkscape:persp3d-origin="372.04724 : 350.78739 : 1"
       id="perspective3196" />
    <inkscape:perspective
       id="perspective3220"
       inkscape:persp3d-origin="0.5 : 0.33333333 : 1"
       inkscape:vp_z="1 : 0.5 : 1"
       inkscape:vp_y="0 : 1000 : 0"
       inkscape:vp_x="0 : 0.5 : 1"
       sodipodi:type="inkscape:persp3d" />
    <linearGradient
       inkscape:collect="always"
       xlink:href="#linearGradient2738"
       id="linearGradient2744"
       x1="1053.2285"
       y1="8.2778082"
       x2="18.407394"
       y2="176.19756"
       gradientUnits="userSpaceOnUse"
       gradientTransform="matrix(0.925398,0,0,1.1887255,0.4471046,-21.667235)" />
    <linearGradient
       inkscape:collect="always"
       id="linearGradient2738">
      <stop
         style="stop-color:#ffffdf;stop-opacity:1;"
         offset="0"
         id="stop2740" />
      <stop
         style="stop-color:#ffffdf;stop-opacity:0;"
         offset="1"
         id="stop2742" />
    </linearGradient>
    <linearGradient
       inkscape:collect="always"
       xlink:href="#linearGradient2738"
       id="linearGradient3974"
       gradientUnits="userSpaceOnUse"
       gradientTransform="matrix(0.91632699,0,0,1.17703,-175.80767,385.4684)"
       x1="1053.2285"
       y1="8.2778082"
       x2="18.407394"
       y2="176.19756" />
    <linearGradient
       inkscape:collect="always"
       xlink:href="#linearGradient2738"
       id="linearGradient4157"
       gradientUnits="userSpaceOnUse"
       gradientTransform="matrix(0.91632699,0,0,1.17703,-175.80767,385.4684)"
       x1="1053.2285"
       y1="8.2778082"
       x2="18.407394"
       y2="176.19756" />
  </defs>
  <sodipodi:namedview
     id="base"
     pagecolor="#ffffff"
     bordercolor="#666666"
     borderopacity="1.0"
     inkscape:pageopacity="0.0"
     inkscape:pageshadow="2"
     inkscape:zoom="1.3556041"
     inkscape:cx="377.69139"
     inkscape:cy="99.347559"
     inkscape:document-units="px"
     inkscape:current-layer="layer1"
     showgrid="true"
     inkscape:window-width="1920"
     inkscape:window-height="1151"
     inkscape:window-x="0"
     inkscape:window-y="0"
     inkscape:window-maximized="1"
     showguides="true"
     inkscape:guide-bbox="true"
     inkscape:snap-grids="true">
    <sodipodi:guide
       orientation="1,0"
       position="3.0273438e-06,280.02418"
       id="guide3138" />
    <sodipodi:guide
       orientation="1,0"
       position="939.80244,310.60947"
       id="guide3140" />
    <sodipodi:guide
       orientation="0,1"
       position="483.80362,198.69512"
       id="guide3142" />
    <sodipodi:guide
       orientation="0,1"
       position="574.16924,-0.10923702"
       id="guide3144" />
    <inkscape:grid
       type="xygrid"
       id="grid3146"
       empspacing="5"
       visible="true"
       enabled="true"
       snapvisiblegridlinesonly="true" />
  </sodipodi:namedview>
  <metadata
     id="metadata3193">
    <rdf:RDF>
      <cc:Work
         rdf:about="">
        <dc:format>image/svg+xml</dc:format>
        <dc:type
           rdf:resource="http://purl.org/dc/dcmitype/StillImage" />
        <dc:title></dc:title>
      </cc:Work>
    </rdf:RDF>
  </metadata>
  <g
     inkscape:label="Calque 1"
     inkscape:groupmode="layer"
     id="layer1"
     transform="translate(167.27435,-377.88583)">
    <g
       id="g3471">
      <rect
         y="436.58099"
         x="-167.27435"
         height="140"
         width="880"
         id="rect3134"
         style="color:#000000;fill:#ffffff;fill-opacity:1;stroke:none;stroke-width:0.99999994;marker:none;visibility:visible;display:inline;overflow:visible;enable-background:accumulate" />
      <circle
         d="m 59.542999,28.438 c 0,15.705873 -12.732126,28.437999 -28.437999,28.437999 C 15.399126,56.875999 2.6669998,44.143873 2.6669998,28.438 2.6669998,12.732126 15.399126,0 31.105,0 46.810873,0 59.542999,12.732126 59.542999,28.438 z"
         transform="matrix(0.95777672,0,0,0.95777672,-167.27434,436.65797)"
         style="fill:#7fc31b;overflow:visible"
         sodipodi:ry="28.438"
         sodipodi:rx="28.438"
         sodipodi:cy="28.438"
         sodipodi:cx="31.105"
         id="circle2794"
         r="28.438"
         cy="28.438"
         cx="31.105" />
      <circle
         d="m 183.84099,55.120998 c 0,11.81061 -9.57439,21.385001 -21.385,21.385001 -11.81061,0 -21.385,-9.574391 -21.385,-21.385001 0,-11.810609 9.57439,-21.385 21.385,-21.385 11.81061,0 21.385,9.574391 21.385,21.385 z"
         transform="matrix(0.95777672,0,0,0.95777672,-167.27434,436.65797)"
         style="fill:#7fc31b;overflow:visible"
         sodipodi:ry="21.385"
         sodipodi:rx="21.385"
         sodipodi:cy="55.120998"
         sodipodi:cx="162.45599"
         id="circle2796"
         r="21.385"
         cy="55.120998"
         cx="162.45599" />
      <circle
         d="m 181.17499,61.120998 c 0,11.81061 -9.57439,21.385001 -21.385,21.385001 -11.81061,0 -21.385,-9.574391 -21.385,-21.385001 0,-11.810609 9.57439,-21.385 21.385,-21.385 11.81061,0 21.385,9.574391 21.385,21.385 z"
         transform="matrix(0.95777672,0,0,0.95777672,-167.27434,436.65797)"
         style="fill:#ffffff;overflow:visible"
         sodipodi:ry="21.385"
         sodipodi:rx="21.385"
         sodipodi:cy="61.120998"
         sodipodi:cx="159.78999"
         id="circle2798"
         r="21.385"
         cy="61.120998"
         cx="159.78999" />
      <circle
         d="m 151.8,32.257999 c 0,12.319816 -9.98719,22.307 -22.307,22.307 -12.31982,0 -22.307,-9.987184 -22.307,-22.307 0,-12.319815 9.98718,-22.3069988 22.307,-22.3069988 12.31981,0 22.307,9.9871838 22.307,22.3069988 z"
         transform="matrix(0.95777672,0,0,0.95777672,-167.27434,436.65797)"
         style="fill:#7fc31b;overflow:visible"
         sodipodi:ry="22.306999"
         sodipodi:rx="22.306999"
         sodipodi:cy="32.257999"
         sodipodi:cx="129.493"
         id="circle2800"
         r="22.306999"
         cy="32.257999"
         cx="129.493" />
      <circle
         d="m 149.134,38.257999 c 0,12.319816 -9.98718,22.307 -22.307,22.307 -12.31981,0 -22.307,-9.987184 -22.307,-22.307 0,-12.319815 9.98719,-22.306999 22.307,-22.306999 12.31982,0 22.307,9.987184 22.307,22.306999 z"
         transform="matrix(0.95777672,0,0,0.95777672,-167.27434,436.65797)"
         style="fill:#ffffff;overflow:visible"
         sodipodi:ry="22.306999"
         sodipodi:rx="22.306999"
         sodipodi:cy="38.257999"
         sodipodi:cx="126.827"
         id="circle2802"
         r="22.306999"
         cy="38.257999"
         cx="126.827" />
      <g
         transform="matrix(0.95777672,0,0,0.95777672,-167.27434,436.65797)"
         id="g2804"
         style="overflow:visible">
        <circle
           d="m 109.442,44.252998 c 0,16.200169 -13.13283,29.333001 -29.332999,29.333001 -16.200169,0 -29.333,-13.132832 -29.333,-29.333001 0,-16.200168 13.132831,-29.333 29.333,-29.333 16.200169,0 29.332999,13.132832 29.332999,29.333 z"
           style="fill:#7fc31b"
           sodipodi:ry="29.333"
           sodipodi:rx="29.333"
           sodipodi:cy="44.252998"
           sodipodi:cx="80.109001"
           id="circle2806"
           r="29.333"
           cy="44.252998"
           cx="80.109001" />
      </g>
      <circle
         d="m 56.875999,34.438 c 0,15.705873 -12.732126,28.437999 -28.437999,28.437999 C 12.732126,62.875999 0,50.143873 0,34.438 0,18.732126 12.732126,6 28.438,6 44.143873,6 56.875999,18.732126 56.875999,34.438 z"
         transform="matrix(0.95777672,0,0,0.95777672,-167.27434,436.65797)"
         style="fill:#ffffff;overflow:visible"
         sodipodi:ry="28.438"
         sodipodi:rx="28.438"
         sodipodi:cy="34.438"
         sodipodi:cx="28.438"
         id="circle2808"
         r="28.438"
         cy="34.438"
         cx="28.438" />
      <g
         transform="matrix(0.95777672,0,0,0.95777672,-167.27434,436.65797)"
         id="g2810"
         style="overflow:visible">
        <circle
           d="m 108.776,48.587002 c 0,16.200168 -13.132831,29.333 -29.332999,29.333 -16.200169,0 -29.333,-13.132832 -29.333,-29.333 0,-16.200169 13.132831,-29.333 29.333,-29.333 16.200168,0 29.332999,13.132831 29.332999,29.333 z"
           style="fill:#ffffff"
           sodipodi:ry="29.333"
           sodipodi:rx="29.333"
           sodipodi:cy="48.587002"
           sodipodi:cx="79.443001"
           id="circle2812"
           r="29.333"
           cy="48.587002"
           cx="79.443001" />
      </g>
      <path
         style="fill:#5ab763;stroke:#000000;stroke-width:0.77002442;overflow:visible"
         id="path2814"
         d="m 103.65901,509.33182 c -0.79069,-0.19668 -1.07846,0.55177 -1.61571,0.89233 -0.69697,0.44088 -1.35699,0.43957 -2.266474,0.55442 -0.991347,0.12143 -1.921957,0.22968 -2.922534,0.23363 -1.16162,0.005 -1.454662,0.0766 -1.379425,-0.9227 -1.136536,-0.25344 -2.308718,0.86331 -3.494097,0.90951 0.242889,-0.95438 -0.908176,-0.84482 -1.619671,-0.42769 -0.09373,-0.49237 -0.747134,-0.42109 -0.976811,-0.86725 -0.16105,-0.31153 -0.01325,-1.17614 0.08448,-1.49031 1.283064,0.0133 1.902158,-0.8567 3.013611,-1.11674 0.599288,-0.13993 1.202543,-0.004 1.80579,-0.0792 0.09108,-0.47256 -0.129357,-0.9161 0.257404,-1.29891 0.459376,-0.45539 2.517285,-0.75109 3.272339,-0.78937 0.114842,-0.36433 -0.01846,-0.75108 -0.196682,-1.07449 1.553665,-0.0779 2.244036,-0.70623 3.28158,-1.50879 -1.924596,-0.23892 -3.191821,0.59664 -4.915773,1.0547 -1.416381,0.37488 -3.123168,-0.10297 -4.441871,0.35508 0.02508,-0.12276 -0.09504,-0.34056 -0.06997,-0.46993 -0.809181,-0.0911 -1.657952,0.006 -2.477688,-0.0316 -0.267972,-0.48445 0.431651,-0.95569 0.832933,-1.23686 0.03565,-0.16369 0.120119,-0.31021 0.248159,-0.43957 0.229691,-0.0409 0.459376,-0.0423 0.68906,-0.006 0.562325,-0.29172 0.784083,-0.97152 1.323981,-1.29625 1.236856,-0.7445 2.789203,-0.3498 2.97533,-1.9114 0.938537,0.0238 2.386604,-0.61776 2.049997,-1.51143 -0.819736,-0.17159 -3.359463,0.71018 -3.934992,1.19859 -0.353764,0.30097 -0.258721,0.74582 -0.727327,1.02302 -0.106923,0.0633 -1.011139,0.20724 -1.1537,0.22177 -0.528011,0.0528 -1.137861,-0.10561 -1.657952,-0.0198 -0.48973,0.0818 -0.90817,0.41844 -1.417699,0.39997 -0.477851,-0.0171 -0.700933,-0.24685 -1.102222,-0.40129 -0.588733,-0.22705 -1.044135,-0.10561 -1.508782,-0.70093 0.269276,-0.57158 1.7147,-0.68642 2.325875,-1.00059 0.405249,-0.20724 0.653415,-0.54384 1.046777,-0.75108 -0.549134,-0.45805 -1.702827,-0.0568 -2.395841,0.002 -0.792016,0.0699 -1.772794,0.0739 -2.546329,-0.0278 -0.141237,-0.49502 0.246848,-0.48313 0.711495,-0.72734 0.378848,-0.0845 0.735254,-0.20856 1.069226,-0.37488 0.204601,-0.10433 0.07519,-0.58081 0.2244,-0.72998 0.234962,-0.23364 0.737889,-0.27324 1.090343,-0.3564 1.124649,-0.26797 1.903469,-0.84878 2.959484,-1.19198 1.280421,-0.41449 1.246108,-0.48577 0.715454,-1.51407 1.181419,-0.5148 3.98647,-1.07186 4.188435,-2.42619 -0.872537,-0.099 -1.139178,-0.0211 -1.713397,0.33792 -1.037533,0.64813 -1.620981,0.97285 -2.967403,1.1999 -1.42695,0.24024 -2.331166,0.47125 -3.668344,-0.0105 -0.690371,-0.24817 -3.076975,-0.56894 -2.897458,-1.37152 0.109572,-0.48972 2.818255,-1.03753 1.461271,-1.90874 -1.131258,-0.72602 -3.331736,1.36754 -3.317221,-0.73394 0.01585,-1.59458 1.899516,-1.33322 3.483541,-1.32397 2.199161,0.0119 5.233895,-0.8765 4.919722,-2.97006 -0.438238,0.30228 -0.983413,0.52537 -0.947774,1.05206 -0.751094,0.27192 -1.755623,0.42241 -1.627584,-0.51613 -0.529336,-0.099 -2.299481,1.4309 -2.09884,-0.005 -0.500292,-0.0806 -2.360195,0.0594 -2.793163,0.29304 -0.650773,-0.96362 -0.07125,-0.95438 0.644171,-1.29626 0.93457,-0.44485 5.07152,-1.71735 4.492031,-2.95818 -1.236857,-0.27456 -1.746386,0.72074 -2.781291,0.74054 -0.546485,0.0106 -0.817086,-0.57026 -1.430896,-0.40394 -0.460686,0.12409 -0.411851,0.56498 -0.630973,0.75902 -0.170287,-1.15634 -0.55177,-1.54179 0.947781,-2.01831 0.765608,-0.24156 2.66776,-1.41506 2.482958,-2.29288 -1.363586,-0.36036 -1.948352,2.10807 -3.215577,1.64343 0.171612,-0.69433 -0.463321,-0.29437 -0.749775,-0.53329 -0.168956,-0.13993 -0.256079,-0.0977 -0.47256,-0.32605 -0.02241,-0.0224 -0.01585,-0.51745 -0.02241,-0.59136 -0.129364,-0.0224 -0.258721,-0.0436 -0.38676,-0.0647 -0.340567,-0.58609 2.531793,-1.43618 2.523881,-2.54633 -0.871213,-0.31151 -1.84143,0.22705 -2.773372,0.0951 -0.227042,-0.78674 1.722634,-1.70944 1.828232,-2.58989 -1.953629,-0.32209 -1.590628,0.0845 -1.891589,-1.51407 -1.481063,0.0397 -0.184809,-1.26459 0.219122,-1.59723 0.550453,-0.45144 1.520662,-0.87385 1.185379,-1.62626 -0.592686,-0.0594 -1.210455,0.0158 -1.800513,-0.0528 -0.0752,-0.19537 0.09373,-1.31079 0.232327,-1.49955 0.364326,-0.49369 1.533872,-0.31813 1.102215,-1.28175 -0.55704,-0.0211 -1.359619,0.0726 -1.646065,-0.40657 0.48973,-0.48312 2.352276,-0.6798 1.878392,-1.67378 -0.83425,-0.0845 -1.993235,0.21253 -2.576683,-0.40657 0.304921,-0.43824 0.913453,-0.70753 1.306823,-1.1075 -0.114849,0.0159 -0.39337,-0.0633 -0.534613,-0.0542 0.630967,-0.0409 0.007,-2.72585 -0.315483,-2.97929 -0.132007,0.53461 0.08185,1.20783 -0.261364,1.70283 -0.06207,0.0871 -1.849356,1.24874 -1.30814,1.40714 0.201965,0.0594 0.373563,0.11089 0.574204,0.17029 0.182166,0.63229 -0.299637,0.65341 -0.678492,1.08902 -0.55308,0.63888 0.208568,0.37093 0.398647,0.90026 0.38941,1.08373 -3.043972,0.21384 -1.617029,1.49426 0.318133,0.28645 0.636258,0.21516 0.997942,0.39469 0.157076,0.0766 0.590051,0.44748 0.739214,0.57288 0.319443,0.27193 0.744491,0.70886 0.66001,1.07847 -0.228367,1.00982 -2.352276,0.53856 -3.259135,0.64681 -0.359041,1.49558 1.800513,0.95305 2.828802,1.11409 1.634193,0.25608 -1.184054,1.37943 -1.892907,1.40847 -0.06208,0.13068 -0.06334,0.33397 -0.0021,0.46333 0.26268,-0.007 0.924008,0.41976 1.114094,0.56629 0.467282,0.36036 0.980771,1.1735 0.587409,1.65003 -0.370921,0.45012 -1.341137,0.46464 -1.841429,0.86329 -0.44749,0.35508 -0.320768,0.33661 0,0.82369 0.258721,0.39601 0.209878,0.54781 0.271918,1.00718 0.04622,0.33265 0.130688,0.60325 0.312848,0.91742 0.16632,0.28776 0.603248,0.55045 0.04883,0.76033 -0.484445,0.18349 -1.020383,-0.10824 -1.376789,-0.23233 -0.472566,-0.16632 -1.129934,0.0171 -1.586661,-0.14652 -0.388085,-0.1386 -0.978136,-1.69358 -1.818995,-1.0613 -0.356406,0.26798 0.0049,0.64549 0.08976,0.89894 0.099,0.29437 -0.01585,0.78146 0.168969,1.06921 0.211203,0.33266 1.367538,0.74582 1.793904,0.89367 0.463336,0.16104 1.239506,0.34189 1.718674,0.3168 0.104288,-0.52932 1.096938,-0.18084 1.396582,0.0488 0.401289,0.30888 0.514814,0.62173 0.645496,1.06261 0.261356,-0.13068 0.634933,-0.12012 0.927975,-0.0633 0.483128,0.67453 -0.359049,0.57685 -0.731294,1.0811 -0.201966,0.27721 -0.32341,1.08241 -0.682452,1.27778 -0.307563,0.16369 -1.341144,-0.0621 -1.694908,-0.10432 -0.48577,-0.0568 -0.986055,-0.20724 -1.558949,-0.13596 -0.658693,0.0832 -1.176142,0.46729 -0.311524,0.63625 0.739214,0.14388 1.606468,-0.12937 2.349641,-0.005 0.376206,0.0633 0.72601,0.34189 1.102223,0.36433 0.561007,0.0343 0.55177,-0.43033 1.09693,-0.38545 0.429015,0.0343 0.71282,0.91082 0.616459,1.25667 -0.233644,0.85009 -1.214422,1.77674 -2.171441,1.74903 -0.739214,-0.0211 -0.970216,-0.71546 -1.915355,-0.49633 -1.228944,0.28644 -0.149164,0.94117 -0.9953,1.57214 -0.760331,0.56629 -1.465217,-0.36829 -1.441458,-1.07186 -0.675849,0.52141 -2.765451,-0.28644 -2.052639,-1.1669 0.279845,-0.34452 1.263258,0.12408 1.701511,-0.36564 0.401282,-0.44749 0.134641,-1.1339 0.740538,-1.52859 -0.467296,-0.13068 -3.593107,0.70093 -3.713233,0.39733 -0.151799,-0.38413 0.200641,-0.89761 0.476533,-1.18803 0.02508,-0.025 1.1999,-0.94117 0.568927,-1.00454 -0.384119,-0.0383 -0.777495,-0.0304 -1.168215,-0.0316 l -0.05418,-0.96229 c -0.170287,0.0713 -0.341884,0.14388 -0.459362,0.25475 -0.05545,0.0502 -0.08711,0.10825 -0.114842,0.16897 0.04488,-0.38941 0.141236,-0.86462 0.22836,-0.9821 0.08448,-0.11484 0.187444,-0.17292 0.300961,-0.23364 0.471249,-0.23497 1.144463,-0.27984 0.799943,-1.04678 -0.555736,-0.0224 -1.358308,0.0726 -1.644754,-0.4092 0.48181,-0.47654 1.139178,-0.58213 1.57347,-1.13786 0.223083,-0.28909 0.916096,-1.08902 0.04094,-1.12467 -0.737896,-0.0316 -1.074496,1.0085 -1.935154,0.45013 -0.751094,-0.48708 0.502927,-0.94118 0.929293,-1.37414 -0.113518,0.0145 -0.389403,-0.0621 -0.531964,-0.0555 0.570245,-0.0304 1.347739,-4.49204 -1.1075,-4.0551 -0.308888,0.054 0.436928,1.3253 0.488406,1.4375 0.304921,0.68508 0.178207,0.82106 -0.366968,1.37942 -0.355075,0.36168 -1.050738,0.97154 -0.894972,1.3715 0.125404,0.31021 0.748451,0.0435 0.555729,0.63493 -0.07791,0.24157 -0.495007,0.42241 -0.666612,0.62306 -0.554412,0.63625 0.207243,0.37092 0.398647,0.89761 0.319443,0.88706 -1.536508,0.42505 -1.86783,0.83822 -0.561007,0.70093 1.713389,1.92855 1.535183,2.77733 -0.79201,0.0778 -1.632869,-0.0476 -2.422236,0.0462 -0.617769,0.0739 0.646806,0.66001 0.73789,0.67849 0.568933,0.11749 0.995299,0.0145 1.432227,0.39337 0.852731,0.73921 0.60589,2.11468 -0.902899,1.72527 -0.700933,-0.18084 -1.318696,-0.54517 -2.061876,-0.63228 -0.310206,-0.0357 -1.465224,-0.36566 -1.804473,-0.18613 -0.149164,-0.0502 -0.300962,-0.0937 -0.458045,-0.13068 0.568927,-0.34981 1.048095,-0.7379 1.04546,-1.16559 -0.984738,-0.31152 -2.080358,0.22705 -3.13242,0.0937 -0.257403,-0.78674 1.944392,-1.70943 2.064519,-2.58989 -2.20708,-0.32209 -1.795236,0.0845 -2.134478,-1.51407 -1.67246,0.0397 -0.209879,-1.26457 0.246848,-1.59723 0.620405,-0.45277 1.716025,-0.87385 1.338502,-1.62758 -0.670565,-0.0594 -1.366228,0.0159 -2.03284,-0.0502 -0.08579,-0.19668 0.105605,-1.31342 0.26137,-1.50087 0.411844,-0.49368 1.731872,-0.31812 1.244784,-1.28042 -0.628339,-0.0224 -1.533873,0.0726 -1.857276,-0.40788 0.551763,-0.48313 2.655887,-0.67982 2.121281,-1.67247 -0.26533,-0.49766 -2.36152,0.45145 -2.554256,-0.6983 0.579496,-0.029 1.87048,-0.36432 1.053387,-1.07713 -0.176882,-0.15446 -0.586091,0.009 -0.835575,-0.20724 -0.299644,-0.26401 -0.224407,-0.5663 -0.238921,-0.88971 -0.02375,-0.68112 0.590043,-3.86106 -1.114102,-3.36605 -0.150488,0.95834 -0.07257,2.04207 -0.01585,3.0123 -0.172922,-0.40526 -0.937205,-1.33191 -1.521986,-1.16823 -0.03565,0.92137 1.243466,1.77675 0.906866,2.7298 -0.19933,-0.0211 -0.495007,0.066 -0.689061,0.0409 0.147846,0.14785 0.436928,0.26005 0.733937,0.37225 0.411844,0.15312 0.838217,0.30229 0.935895,0.53725 0.099,0.23892 -0.517449,0.65077 -0.629649,0.89498 -0.23232,0.50952 -0.01191,0.86198 0.0924,1.35038 0.258721,1.22894 -1.067894,0.3828 -2.088278,0.33133 -0.197999,-0.009 -1.091653,-0.2297 -0.790692,0.35244 0.32341,0.62701 1.677752,0.45144 2.308718,0.7313 1.296269,0.5742 0.6125,2.81428 -0.997935,2.35228 -0.396004,-0.11353 -0.592685,-0.40789 -1.094295,-0.51085 -0.370928,-0.0766 -0.926658,-0.22309 -1.379432,-0.12409 -1.601183,0.35113 0.683776,0.77618 1.338502,0.77354 0.691703,-0.004 1.48899,0.24024 2.145047,0.41976 0.378848,0.10297 0.675849,0.32473 1.071854,0.37885 0.521409,1.1273 -3.532384,0.67849 -4.171271,0.76297 0.357731,0.50161 1.272502,0.52933 1.504829,1.18142 -0.611174,0.07 -1.416388,0.0937 -2.035475,0.0304 -0.518774,-0.0528 -1.587985,-0.39337 -1.936479,-0.0383 0.826337,0.0171 1.232911,0.28645 1.875757,0.64154 0.419764,0.23364 1.033573,0.5082 1.544427,0.59268 0.419764,0.07 0.957019,-0.0778 1.347739,0.0264 0.869896,0.23365 0.792017,1.0745 -0.155758,1.24346 -0.59797,0.10692 -1.317385,-0.0461 -1.925917,0.0158 -0.0752,0.38941 -0.153116,0.86727 0.343209,1.0613 0.817093,0.31813 0.838217,-0.2046 1.437505,0.60985 0.425041,0.57685 0.971533,1.34906 0.0021,1.70284 -0.624372,0.22836 -2.233481,0.22439 -2.835419,0.0356 -0.438245,-0.13859 -1.104857,-1.69358 -2.053949,-1.06129 -0.401297,0.26664 0.007,0.64417 0.10032,0.89892 0.110883,0.29437 -0.01846,0.78147 0.191397,1.06922 0.237604,0.33133 1.543103,0.74582 2.023596,0.89366 0.525368,0.16105 1.401866,0.3419 1.940432,0.31549 0.118802,-0.52801 1.239506,-0.17953 1.577423,0.0502 0.454092,0.30888 0.579496,0.62041 0.728659,1.06393 0.146521,-0.0659 0.324728,-0.0951 0.506887,-0.10159 0.01452,0.29304 0.03565,0.57948 0.06208,0.85406 -0.128039,0.0687 -0.250794,0.15047 -0.345844,0.26531 -0.22836,0.27721 -0.366961,1.08243 -0.77221,1.27647 -0.345852,0.165 -1.515384,-0.0607 -1.914031,-0.10297 -0.54781,-0.0581 -1.112777,-0.20855 -1.758273,-0.13596 -0.744498,0.0832 -1.330589,0.46729 -0.352446,0.63493 0.834257,0.14388 1.81371,-0.12936 2.653245,-0.004 0.425048,0.0621 0.818417,0.34057 1.244783,0.36301 0.632291,0.0357 0.623054,-0.42901 1.239499,-0.38545 0.168962,0.0132 0.316801,0.13068 0.434293,0.28908 0.08711,0.26138 0.179524,0.52142 0.281155,0.78146 0.0021,0.07 -0.0028,0.13596 -0.01846,0.18744 -0.364326,1.16823 -1.162937,1.67116 -2.823531,1.66852 -0.723368,-7e-4 -1.77543,0.13199 -2.469761,-0.0211 -1.001895,-0.21911 -1.026978,-1.02697 -1.759583,-1.37677 -0.205933,-0.099 -0.788057,-0.12409 -1.075821,-0.23892 -0.333972,-0.13465 -0.726017,-0.33133 -1.063942,-0.47654 -0.642853,-0.27852 -1.240816,-0.858 -2.105434,-0.78673 -1.572153,0.12805 0.04488,0.93194 0.649455,1.24083 0.860644,0.4422 1.300221,0.90817 1.973421,1.5035 -0.555722,-0.26796 -1.417698,-0.4554 -2.077708,-0.32869 -0.05679,0.0713 -0.05277,0.14124 0.0079,0.20989 0.846137,0.025 2.225562,0.22307 2.981932,0.49501 1.143146,0.41052 1.136544,1.03225 1.236864,1.90214 0.34452,0.0621 0.723368,0.0502 1.062617,-0.0304 0.312841,-0.0739 0.570251,-0.35905 0.739214,-0.40393 0.711488,-0.18744 2.798448,-0.25344 3.292138,0.28777 0.913447,0.99925 -1.557632,0.70489 -2.242718,0.93061 -0.363009,0.12012 -0.443537,0.36434 -0.826338,0.48973 -0.663977,0.21912 -1.421665,0.15577 -2.065829,0.0488 -0.01846,-0.1452 -0.116167,-0.2508 -0.295691,-0.31285 -0.253444,0.009 -0.506887,0.0159 -0.761655,0.0211 -0.352447,-0.0304 -0.73393,-0.0119 -1.075814,0.0264 -0.33529,0.62436 0.366968,0.81577 1.016416,0.92137 0.921373,0.15048 1.156335,-0.0633 1.999837,0.33264 0.349804,0.16633 1.10354,0.49766 1.140496,0.88838 0.05545,0.58741 -1.267225,0.89629 -1.816353,1.2857 -1.391304,0.99265 -3.104694,0.30097 -4.860324,0.0331 -1.467859,-0.22572 -3.744905,-0.26136 -5.207487,-0.0555 -0.236286,0.7643 5.288008,1.57479 3.986462,2.34568 1.449392,-0.49502 1.405826,0.85141 2.376042,1.19065 0.322086,0.1122 0.768258,-0.0871 1.048103,0.0105 0.770892,0.26665 0.728652,0.43033 1.009821,1.0085 0.270601,0.56233 -0.0049,0.38016 0.5148,0.76165 0.258735,0.18745 0.865943,0.26401 1.137861,0.46994 0.42373,0.3234 0.883099,1.07449 0.537248,1.56818 -0.163671,0.22704 -0.278513,0.231 -0.531964,0.38016 -0.180842,-0.0105 -0.365651,-0.0198 -0.550452,-0.0304 -0.285122,0.13067 -0.378841,0.35508 -0.653408,0.49765 -0.769575,0.39468 -1.280422,0.54516 -2.255923,0.70225 -1.020376,0.165 -1.393946,-0.25873 -2.374724,-0.24289 -0.914772,0.0145 -1.549705,0.43693 -2.599118,0.37093 -0.307571,-1.7728 -1.305505,-2.03416 -3.511268,-1.26723 -0.476519,-0.4356 -0.16763,-0.90158 -1.036215,-1.20386 -0.233638,-0.0806 -1.896874,-0.0568 -2.080351,0.0145 -1.849356,0.70884 0.770892,1.13125 1.495585,1.54178 -0.790692,0.37356 0.479175,0.95306 0.798611,1.40714 0.619094,0.8831 0.08579,0.8831 -0.943808,1.17219 0.770886,0.47124 2.145033,0.1848 3.082246,0.2706 -0.0396,0.14388 0.104287,0.3683 0.06729,0.51216 0.501617,0.0514 1.017741,0.004 1.520668,0.0514 -0.520084,2.22161 4.403598,0.45278 5.291975,0.36697 0.916096,0.82633 1.482381,1.77279 1.593263,2.82353 -0.454092,0.0211 -0.612485,-0.16764 -1.032256,-0.23892 -1.619671,-0.27457 -2.534442,-0.0647 -3.958743,0.44352 -1.176142,0.41977 -1.694915,0.6983 -2.048686,-0.46729 -0.279838,-0.93062 -0.07125,-1.02433 -1.189339,-1.26062 -0.708846,-0.14916 -1.644741,0.20064 -2.340397,-0.007 -0.640211,-0.19273 -0.638886,-0.87386 -1.580066,-0.75506 -0.54385,0.07 -1.038857,0.54781 -0.854056,0.96363 0.191404,0.42504 1.411104,0.73525 1.873115,1.03489 0.685094,0.44485 1.597223,0.96231 2.201795,1.44014 0.570252,0.4541 0.373564,0.33529 0.489731,1.03358 0.07257,0.44221 -0.178207,0.67981 0.509529,0.85801 1.009821,0.26137 1.743744,-0.74053 3.000414,-0.27191 1.003212,0.37619 0.769568,1.1999 0.71017,1.91799 -1.358301,0.39733 -3.071691,0.11352 -3.895393,1.18669 -0.352439,-2.43544 -1.972111,-0.6864 -3.710584,-0.42504 -0.574204,0.0871 -1.611745,0.13993 -2.164832,0.0607 -0.966256,-0.13993 -0.794652,-0.36829 -1.363586,-0.75769 -0.216487,-0.14785 -0.258728,-0.50161 -0.838209,-0.4277 -1.42695,0.18085 0.38676,0.98871 0.729969,1.15635 0.49369,0.2442 1.049413,0.61117 1.64739,0.73392 0.710171,0.14521 1.298897,-0.0594 1.958914,0.2046 0.273243,0.10826 0.359049,0.41318 0.549128,0.49634 0.279845,0.12408 0.780137,-0.0264 0.975493,0.11221 0.748458,0.53328 0.531971,1.41637 1.594595,1.82031 -0.05418,-0.33134 0.05545,-0.5729 0.517442,-0.50822 0.117484,0.52009 -0.209878,1.04018 0.612492,1.28967 -0.231009,0.62832 -0.65209,0.99661 -1.547063,1.14314 -0.719414,-0.80389 -1.182743,-1.24742 -2.403768,-0.94909 -0.887052,0.21779 -1.161619,0.44088 -2.233474,0.34584 -0.769575,-0.07 -1.797871,-0.15841 -2.399801,-0.52141 -0.516131,-0.3102 -0.617776,-0.96098 -1.474468,-0.7445 -0.633609,1.25402 2.733766,2.48824 3.917835,2.94761 1.172181,0.4541 2.480315,0.50293 3.726416,0.86594 0.02508,0.16236 -0.02374,0.19667 -0.09768,0.34584 -1.267218,-0.0476 -2.890842,0.18613 -4.142228,-0.005 -0.475208,-0.0726 -0.877815,-0.29305 -1.318702,-0.43297 -0.842177,-0.27193 -1.570829,-0.16105 -2.386604,-0.31417 -1.049413,-0.198 -1.430903,-0.87254 -2.4394,-1.1801 -0.739214,-0.22572 -1.809757,0.0435 -2.402443,-0.28511 -0.516132,-0.28778 -0.179524,-1.09035 -0.979453,-1.37019 -0.378848,-0.13333 -1.149748,-0.0198 -1.545745,0.009 -0.467296,1.2527 1.412414,1.68039 2.071106,2.58856 -0.881768,0.16237 -1.801824,-0.1254 -2.597807,-0.32868 -0.670565,1.1075 1.735838,0.52801 2.335126,0.71413 1.264583,0.39469 0.568934,0.97154 0.295684,1.53123 0.603255,0.38017 1.090336,0.69169 1.910079,0.78014 0.620404,0.0673 1.143131,-0.18216 1.551029,0.16764 -0.707535,0.24025 -1.317385,0.693 -1.341144,1.31342 0.133317,0.037 0.263998,0.0383 0.393362,0.004 -0.237604,0.20857 -0.04622,0.34584 -0.133316,0.54913 0.892329,0.11089 1.782024,-0.31813 2.584595,-0.13596 0.125405,0.43032 0.03699,0.88178 -0.205918,1.26987 1.069212,-0.0739 1.578741,0.59004 2.898768,0.37357 0.575529,-0.0937 0.976819,-0.31945 1.54707,-0.35378 0.814451,-0.0462 1.578741,0.24685 2.38132,0.18216 0.336607,-0.95305 0.699608,-0.99661 1.873115,-1.12598 0.764283,-0.0844 0.468599,0.1386 1.083733,-0.22703 0.106923,-0.0647 0.198006,-0.52405 0.233645,-0.63758 0.60589,0.23761 0.658692,-0.0832 1.26194,-0.0844 0.811815,-0.002 0.992664,0.28645 1.680386,0.51481 0.04094,-0.13596 0.302287,-0.25345 0.275892,-0.47916 1.096931,-0.12936 1.033581,-0.0806 1.297572,0.5346 0.09768,0.22705 0.02903,0.76297 0.01191,0.98342 -0.06863,0.88309 -0.196681,0.92534 -1.017734,1.30947 -0.08054,0.0383 -0.616459,0.10032 -0.777495,0.16368 -0.405249,0.16104 -0.743181,0.44485 -1.013781,0.71413 -0.696973,0.69301 -0.628332,0.81709 -1.796553,1.12466 -0.891013,0.23364 -2.080358,0.74185 -3.075651,0.6468 -0.491048,-0.0488 -0.876498,-0.41183 -1.313425,-0.55307 -0.703569,-0.22706 -1.45598,-0.29174 -2.220277,-0.22573 -0.810491,0.0699 -1.574789,0.36697 -2.428838,0.12276 -0.663977,-0.19009 -2.098839,-0.8699 -2.03284,-1.41771 -0.959654,-0.07 -3.062453,0.30757 -3.933666,0 -0.537249,-0.19008 -0.419771,-0.68377 -0.835575,-0.88969 -0.49369,-0.24157 -1.376783,0.15047 -1.824272,-0.10957 -0.467289,-0.27456 -0.04354,-0.70093 -0.411844,-1.02432 -0.410534,-0.35906 -1.05338,-0.31945 -1.673792,-0.2693 -1.020379,0.0818 -2.578008,0.7049 -0.770896,1.21179 0.180846,-0.0594 0.266644,-0.15972 0.254765,-0.30097 -0.02114,0.33792 -0.157076,0.84744 -0.04228,1.16953 0.298327,0.8303 1.566869,0.80522 2.134471,1.47975 0.625696,0.74582 -0.298326,1.49823 1.355666,1.55895 0.562332,0.0198 1.71339,-0.15972 2.390564,-0.198 0.693013,-0.037 1.421665,-0.0871 2.093555,-0.19932 0.957012,-0.15709 1.496902,-0.26269 1.840104,0.57289 -0.58609,0.43561 -3.339649,0.41316 -2.947611,1.32265 0.237611,0.55045 3.665709,0.5993 4.411518,0.90026 -0.533282,0.6323 0.451449,0.64154 0.42769,0.98606 -0.04749,0.6864 -1.667182,0.34717 -2.383962,0.41317 -0.07923,0.132 -0.130681,0.43692 -0.09504,0.57289 2.116004,0.0555 4.061713,-0.47521 6.239742,-0.16765 1.80448,0.25609 3.170701,1.39922 3.058494,2.77205 -1.71074,-0.1188 -1.170857,0.84482 -1.99587,1.52859 -0.465971,0.38676 -1.479745,0.17424 -1.466541,0.90818 -1.408468,0.14916 -1.140503,0.60588 -2.369447,0.0528 -1.005855,-0.45672 -1.704146,-1.26458 -2.753565,-0.41053 -0.51349,0.41846 -0.481811,2.2744 -1.726594,2.12789 -1.069212,-0.1254 -0.698284,-1.72264 -0.825013,-2.27836 -1.162937,-0.19669 -0.910811,1.89158 -2.013027,0.3564 -0.339256,-0.47125 0.02769,-0.92006 -1.044142,-0.72733 -0.671897,0.12145 -0.966263,0.67585 -1.185379,1.08373 -0.868578,-0.10296 -0.549128,-1.08241 -1.487665,-0.90685 -0.266655,1.04546 -1.60119,2.76412 -1.964199,0.69301 -0.190082,-1.06789 -0.493691,-1.17878 -1.853315,-1.52198 -1.026971,-0.26005 -1.689623,-0.35112 -2.328516,-1.02699 -0.370927,-0.38543 -0.47917,-1.21705 -1.523309,-0.74185 -0.382801,0.17424 -0.743176,1.28703 -0.535925,1.59327 0.357727,0.52538 1.943067,0.59533 2.313994,1.1735 0.373572,0.58477 -0.145202,1.15239 -0.770888,1.28174 0.627009,0.0925 1.822949,-0.1848 2.197836,0.21649 0.555732,0.60061 -0.533287,0.74318 -0.384124,1.29758 0.311524,1.1735 2.786564,-0.17424 3.700023,0.0712 0.201959,0.64417 -0.137283,1.04282 -0.66001,1.53915 1.152383,0.71413 3.337021,-0.38545 4.654399,-0.22044 0.03699,0.3498 -0.246841,1.22762 0.06074,1.50086 0.575528,0.51217 3.248586,0.21516 4.049826,0.1848 0.832939,-0.0303 1.693598,-0.2442 2.505406,-0.17424 -0.199323,0.84085 1.250061,0.72338 2.022278,0.73262 0.814458,0.0105 1.998512,-0.25741 2.455246,0.31812 0.225725,0.28514 0.0079,0.84746 0.07257,1.16823 0.785407,0.0766 1.594587,0.27059 2.345674,0.45144 0.007,0.10432 0.02114,0.20724 0.04094,0.30888 0.452767,-0.0594 0.660003,-0.24948 1.085058,-0.38281 2.720562,-0.85933 5.728902,-0.81841 8.553745,-1.37149 2.563486,-0.49897 4.835247,-1.21443 7.506967,-1.46391 0.700933,-0.0647 4.179197,0.16104 4.752084,-0.22573 0.121444,-0.0806 0.48181,-1.5035 0.520091,-1.60514 0.89629,-2.28892 1.840112,-4.4762 2.178037,-6.85487 0.261363,-1.81768 0.294366,-3.63931 0.237604,-5.46491 -0.03171,-1.0085 0.257403,-1.13786 1.04546,-1.95496 0.786732,-0.81708 1.840111,-2.16087 2.141073,-3.15088 0.250808,-0.82766 -0.157076,-1.80448 -0.0198,-2.64402 0.113524,-0.6798 0.729976,-1.19593 1.026978,-1.85594 0.370928,-0.82766 -0.191404,-1.78599 0.09109,-2.63081 0.101631,-0.29832 0.559683,-0.37752 0.526687,-0.79993 1.663222,-0.054 3.329101,-0.34453 4.968564,-0.58609 1.677744,-0.2442 2.745646,-0.64682 4.224074,-1.14975 0.744491,-0.25476 1.617029,-0.36167 2.379995,-0.59664 1.188028,-0.36432 2.919892,-0.91214 3.909914,-1.48767 0.45276,-0.26268 0.62173,-0.6072 0.661328,-0.99134 0.06208,0.005 0.117477,0.0171 0.186126,0.0171 1.232897,0.0132 1.195941,-0.99134 2.02888,-1.56027 0.399958,-0.27192 0.876491,-0.52403 1.400542,-0.37753 0.88837,0.24949 0.803889,0.60855 1.758273,0.51613 1.129934,-0.10956 2.253273,-0.34056 3.371327,-0.52668 1.487665,-0.24553 2.432805,-0.64681 3.74227,-1.14974 0.658686,-0.25476 1.432221,-0.36169 2.10807,-0.59665 1.052064,-0.36433 2.584614,-0.91214 3.461104,-1.48766 0.74714,-0.48181 0.64417,-1.24346 0.50689,-2.04076 z"
         inkscape:connector-curvature="0" />
      <path
         style="fill:none;stroke:#000000;stroke-width:0.77002442;overflow:visible"
         id="path2816"
         d="m -2.2767849,508.35897 c 6.3664697,-3.62215 10.6605067,-10.46911 10.6605067,-18.31796 0,-11.62941 -9.4302471,-21.05701 -21.0583208,-21.05701 -3.409622,0 -6.629161,0.8105 -9.477765,2.24932"
         inkscape:connector-curvature="0" />
      <path
         style="fill:none;stroke:#000000;stroke-width:0.77002442;overflow:visible"
         id="path2818"
         d="m -13.363657,535.59235 -0.686412,-43.71783 c 0,0 0.458049,-5.72495 0.458049,-7.32613 0,-1.60119 -0.227039,-12.12969 -0.227039,-12.12969"
         inkscape:connector-curvature="0" />
      <path
         style="fill:none;stroke:#000000;stroke-width:0.77002442;overflow:visible"
         id="path2820"
         d="m -13.606542,483.83162 c 0,0 -4.107908,-6.8364 -4.791682,-7.52281 -0.687734,-0.68773 -3.892743,-3.20634 -4.122429,-4.34948"
         inkscape:connector-curvature="0" />
      <path
         style="fill:none;stroke:#000000;stroke-width:0.77002442;overflow:visible"
         id="path2822"
         d="m -19.085958,475.85075 c 0,-0.6864 -0.458039,-4.80751 -0.458039,-4.80751"
         inkscape:connector-curvature="0" />
      <path
         style="fill:none;stroke:#000000;stroke-width:0.77002442;overflow:visible"
         id="path2824"
         d="m -14.73648,490.95841 c 0,0 -10.297494,-12.82005 -10.758181,-13.50514"
         inkscape:connector-curvature="0" />
      <path
         style="fill:none;stroke:#000000;stroke-width:0.77002442;overflow:visible"
         id="path2826"
         d="m -14.278431,500.11409 c 0,0 -11.902641,-7.3248 -12.590376,-8.46926 -0.686411,-1.14446 -4.348154,-8.46927 -4.348154,-8.46927"
         inkscape:connector-curvature="0" />
      <path
         style="fill:none;stroke:#000000;stroke-width:0.77002442;overflow:visible"
         id="path2828"
         d="m -13.59202,493.54831 c 0,0 12.3593747,-6.86677 13.04842336,-8.69764"
         inkscape:connector-curvature="0" />
      <line
         style="fill:none;stroke:#000000;stroke-width:0.77002442;overflow:visible"
         id="line2830"
         y2="491.25604"
         x2="-3.9786186"
         y1="490.80484"
         x1="-7.1811805" />
      <polyline
         transform="matrix(0.95777672,0,0,0.95777672,-167.27434,436.65797)"
         style="fill:none;stroke:#000000;stroke-width:0.80397046;overflow:visible"
         id="polyline2832"
         points="160.937,64.176 166.433,64.894 170.495,60.832 " />
      <line
         style="fill:none;stroke:#000000;stroke-width:0.77002442;overflow:visible"
         id="line2834"
         y2="499.27252"
         x2="-3.5234141"
         y1="499.03888"
         x1="-8.3292713" />
      <path
         style="fill:none;stroke:#000000;stroke-width:0.77002442;overflow:visible"
         id="path2836"
         d="m -14.050069,491.87452 c 0,0 6.8667606,-6.41004 6.408712,-13.50647"
         inkscape:connector-curvature="0" />
      <path
         style="fill:none;stroke:#000000;stroke-width:0.77002442;overflow:visible"
         id="path2838"
         d="m -8.6577749,483.83162 c 0,0 5.5942574,-2.48692 5.8239434,-3.86107 0.2283634,-1.37282 2.05923484,-7.78286 2.05923484,-7.78286"
         inkscape:connector-curvature="0" />
      <path
         style="fill:none;stroke:#000000;stroke-width:0.77002442;overflow:visible"
         id="path2840"
         d="m -2.8338315,479.97187 c 0,0 4.5791557,-0.91609 5.4939291,-2.74696"
         inkscape:connector-curvature="0" />
      <path
         style="fill:none;stroke:#000000;stroke-width:0.77002442;overflow:visible"
         id="path2842"
         d="m -3.7499282,482.02978 c 0,0 1.3728228,0.68774 2.2889201,0.23102"
         inkscape:connector-curvature="0" />
      <g
         transform="matrix(0.95777672,0,0,0.95777672,-167.27434,436.65797)"
         id="g2844"
         style="overflow:visible">
        <g
           id="g2846">
          <polygon
             style="fill:#e5d0bf"
             id="polygon2848"
             points="150.443,86.253 181.776,86.253 181.776,94.92 227.109,94.92 227.109,90.253 263.109,90.253 263.109,71.587 268.443,71.587 240.443,50.253 240.443,50.253 219.381,66.301 204.443,54.92 194.464,62.524 173.109,46.253 145.109,67.587 150.443,67.587 " />
        </g>
        <g
           id="g2850">
          <polygon
             style="fill:none;stroke:#000000;stroke-width:0.80397046"
             id="polygon2852"
             points="227.109,94.92 227.109,90.253 263.109,90.253 263.109,71.587 268.443,71.587 240.443,50.253 240.443,50.253 219.381,66.301 204.443,54.92 194.464,62.524 173.109,46.253 145.109,67.587 150.443,67.587 150.443,86.253 181.776,86.253 181.776,94.92 " />
        </g>
      </g>
      <g
         transform="matrix(0.95777672,0,0,0.95777672,-167.27434,436.65797)"
         id="g2854"
         style="overflow:visible">
        <g
           id="g2856">
          <polygon
             style="fill:#ffffff"
             id="polygon2858"
             points="262.569,73.846 262.569,73.846 240.443,55.253 218.303,72.123 202.943,60.42 192.386,68.464 171.109,52.253 151.326,67.327 151.11,92.253 180.276,92.253 180.276,100.42 225.609,100.42 225.609,95.416 262.382,96.18 " />
        </g>
      </g>
      <rect
         style="fill:#ffffff;overflow:visible"
         id="rect2860"
         height="46.104092"
         width="410.14804"
         y="512.88043"
         x="-136.20245" />
      <g
         transform="matrix(0.95777672,0,0,0.95777672,-168.14081,436.65797)"
         id="g2862"
         style="overflow:visible">
        <path
           id="path2864"
           d="m 73.455,86.336 -4.142,1.48 c -2.787,-2.952 -6.688,-4.428 -11.704,-4.428 -3.8,0 -6.897,0.974 -9.291,2.921 -2.394,1.947 -3.591,4.426 -3.591,7.435 0,3.111 1.184,5.621 3.553,7.53 2.369,1.909 5.567,2.864 9.595,2.864 4.864,0 8.689,-1.501 11.476,-4.504 l 3.914,2.164 c -1.976,2.303 -4.212,3.967 -6.707,4.991 -2.496,1.024 -5.479,1.537 -8.949,1.537 -4.864,0 -8.905,-1.215 -12.122,-3.646 -3.674,-2.784 -5.51,-6.43 -5.51,-10.936 0,-4.43 1.862,-8.05 5.586,-10.86 3.243,-2.455 7.258,-3.683 12.046,-3.683 6.89,0 12.172,2.378 15.846,7.135 z"
           inkscape:connector-curvature="0" />
        <path
           id="path2866"
           d="m 106.646,107.576 -4.982,0 -2.704,-5.031 -15.714,0 -2.705,5.031 -5.017,0 12.73,-23.375 5.662,0 12.73,23.375 z m -9.985,-9.188 -5.541,-10.304 -5.576,10.304 11.117,0 0,0 z"
           inkscape:connector-curvature="0" />
        <path
           id="path2868"
           d="m 138.31,107.576 -5.257,0 -6.123,-8.594 -11.57,0 0,8.594 -4.562,0 0,-23.375 18.895,0 c 2.484,0 4.461,0.672 5.931,2.015 1.47,1.343 2.205,3.142 2.205,5.397 0,3.877 -1.943,6.246 -5.828,7.107 l 6.309,8.856 z M 129,94.826 c 2.761,0 4.142,-1.046 4.142,-3.14 0,-2.219 -1.469,-3.329 -4.407,-3.329 l -13.374,0 0,6.469 13.639,0 z"
           inkscape:connector-curvature="0" />
        <path
           id="path2870"
           d="m 159.89,84.201 c 4.102,0 7.395,1.077 9.876,3.231 2.481,2.154 3.724,4.916 3.724,8.286 0,3.066 -1.305,6.005 -3.913,8.818 -0.734,0.811 -1.899,1.508 -3.495,2.09 -1.748,0.634 -3.559,0.95 -5.432,0.95 l -15.88,0 0,-23.375 15.12,0 z m 1.06,19.218 c 2.229,0 4.057,-0.695 5.486,-2.086 1.431,-1.391 2.146,-3.162 2.146,-5.312 0,-2.302 -0.76,-4.154 -2.279,-5.558 -1.518,-1.404 -3.543,-2.106 -6.074,-2.106 l -10.897,0 0,15.062 11.618,0 0,0 z"
           inkscape:connector-curvature="0" />
        <path
           id="path2872"
           d="m 184.292,107.576 -4.562,0 0,-23.375 4.562,0 0,23.375 z"
           inkscape:connector-curvature="0" />
        <path
           id="path2874"
           d="m 219.52,107.576 -6.806,0 -15.882,-19.494 0,19.494 -4.562,0 0,-23.375 6.802,0 15.886,19.499 0,-19.499 4.562,0 0,23.375 0,0 z"
           inkscape:connector-curvature="0" />
        <path
           id="path2876"
           d="m 254.845,107.576 -4.982,0 -2.704,-5.031 -15.714,0 -2.705,5.031 -5.017,0 12.729,-23.375 5.662,0 12.731,23.375 z m -9.986,-9.188 -5.54,-10.304 -5.576,10.304 11.116,0 z"
           inkscape:connector-curvature="0" />
        <path
           id="path2878"
           d="m 281.606,107.576 -22.609,0 0,-23.375 4.562,0 0,19.219 18.047,0 0,4.156 0,0 z"
           inkscape:connector-curvature="0" />
        <path
           id="path2880"
           d="m 325.37886,85.952204 -4.142,1.48 c -2.787,-2.952 -6.688,-4.428 -11.704,-4.428 -3.8,0 -6.897,0.974 -9.291,2.921 -2.394,1.947 -3.591,4.426 -3.591,7.435 0,3.111 1.184,5.621 3.553,7.529996 2.369,1.909 5.567,2.864 9.595,2.864 4.864,0 8.689,-1.501 11.476,-4.503996 l 3.914,2.163996 c -1.976,2.303 -4.212,3.967 -6.707,4.991 -2.496,1.024 -5.479,1.537 -8.949,1.537 -4.864,0 -8.905,-1.215 -12.122,-3.646 -3.674,-2.784 -5.51,-6.429996 -5.51,-10.935996 0,-4.43 1.862,-8.05 5.586,-10.86 3.243,-2.455 7.258,-3.683 12.046,-3.683 6.89,0 12.172,2.378 15.846,7.135 z"
           inkscape:connector-curvature="0" />
        <path
           id="path2882"
           d="m 359.41686,107.1922 -5.257,0 -6.123,-8.593996 -11.57,0 0,8.593996 -4.562,0 0,-23.374996 18.895,0 c 2.484,0 4.461,0.672 5.931,2.015 1.47,1.343 2.205,3.142 2.205,5.397 0,3.877 -1.943,6.246 -5.828,7.107 l 6.309,8.855996 z m -9.31,-12.749996 c 2.761,0 4.142,-1.046 4.142,-3.14 0,-2.219 -1.469,-3.329 -4.407,-3.329 l -13.375,0 0,6.469 13.64,0 z"
           inkscape:connector-curvature="0" />
        <path
           id="path2884"
           d="m 391.03186,107.1922 -25.156,0 0,-23.374996 24.282,0 0,4.156 -19.719,0 0,5 13.715,0 0,4.156 -13.715,0 0,5.905996 20.593,0 0,4.157 0,0 z"
           inkscape:connector-curvature="0" />
        <path
           id="path2886"
           d="m 422.07686,107.1922 -25.155,0 0,-23.374996 24.282,0 0,4.156 -19.72,0 0,5 13.716,0 0,4.156 -13.716,0 0,5.905996 20.593,0 0,4.157 0,0 z"
           inkscape:connector-curvature="0" />
        <path
           id="path2888"
           d="m 456.19986,107.1922 -5.864,0 -11.155,-11.862996 -6.65,4.779996 0,7.083 -4.562,0 0,-23.374996 4.562,0 0,11.443 15.918,-11.443 6.747,0 -12.505,8.951 13.509,14.423996 z"
           inkscape:connector-curvature="0" />
      </g>
      <path
         style="fill:none;stroke:#000000;stroke-width:0.72940356;overflow:visible"
         id="path2890"
         d="m -136.34358,437.71794 c 0.70226,3.76999 0,115.65645 0,115.65645"
         inkscape:connector-curvature="0" />
      <path
         style="fill:none;stroke:#000000;stroke-width:0.77002442;overflow:visible"
         id="path2892"
         d="m -136.04261,479.68146 c 0,0 -10.29749,-0.6732 -12.065,-1.26194 -1.77016,-0.59005 -5.59955,-3.24197 -5.59955,-3.24197"
         inkscape:connector-curvature="0" />
      <line
         style="fill:none;stroke:#000000;stroke-width:0.77002442;overflow:visible"
         id="line2894"
         y2="479.89594"
         x2="-157.53682"
         y1="478.56659"
         x1="-148.17484" />
      <path
         style="fill:none;stroke:#000000;stroke-width:0.77002442;overflow:visible"
         id="path2896"
         d="m -136.36074,468.0283 c 0,0 -8.50358,-2.578 -10.86247,-4.93688 -2.35888,-2.35756 -6.18958,-7.36573 -6.18958,-7.36573"
         inkscape:connector-curvature="0" />
      <line
         style="fill:none;stroke:#000000;stroke-width:0.77002442;overflow:visible"
         id="line2898"
         y2="462.50137"
         x2="-156.94868"
         y1="463.71796"
         x1="-146.57961" />
      <path
         style="fill:none;stroke:#000000;stroke-width:0.77002442;overflow:visible"
         id="path2900"
         d="m -141.62894,466.27268 c 0,0 -12.07954,5.07152 -15.32019,5.07152"
         inkscape:connector-curvature="0" />
      <line
         style="fill:none;stroke:#000000;stroke-width:0.77002442;overflow:visible"
         id="line2902"
         y2="468.39893"
         x2="-158.72118"
         y1="469.87332"
         x1="-151.64328" />
      <path
         style="fill:none;stroke:#000000;stroke-width:0.77002442;overflow:visible"
         id="path2904"
         d="m -136.04261,474.7327 12.10197,-8.69367 c 0,0 7.66273,-4.12639 9.13719,-5.00948 1.47183,-0.88442 2.65193,-1.76884 2.65193,-1.76884"
         inkscape:connector-curvature="0" />
      <polyline
         transform="matrix(0.95777672,0,0,0.95777672,-167.27434,436.65797)"
         style="fill:none;stroke:#000000;stroke-width:0.80397046;overflow:visible"
         id="polyline2906"
         points="45.245,30.676 47.399,25.752 49.552,24.214 " />
      <path
         style="fill:none;stroke:#000000;stroke-width:0.77002442;overflow:visible"
         id="path2908"
         d="m -131.30901,471.63988 c 0,0 7.36574,0.58874 8.84152,0 1.47314,-0.5874 3.53633,-1.76883 3.53633,-1.76883 l 1.47314,-2.06319"
         inkscape:connector-curvature="0" />
      <line
         style="fill:none;stroke:#000000;stroke-width:0.77002442;overflow:visible"
         id="line2910"
         y2="468.98709"
         x2="-110.97266"
         y1="469.87332"
         x1="-118.93275" />
      <polyline
         transform="matrix(0.95777672,0,0,0.95777672,-167.27434,436.65797)"
         style="fill:none;stroke:#000000;stroke-width:0.80397046;overflow:visible"
         id="polyline2912"
         points="32.942,28.92 39.706,17.444 40.015,11.29 " />
      <path
         style="fill:none;stroke:#000000;stroke-width:0.77002442;overflow:visible"
         id="path2914"
         d="m -116.27659,447.1759 c 0,0 -4.12639,3.83203 -6.77964,5.3065 -2.65193,1.47314 -6.18826,0.88309 -6.18826,0.88309 l 4.71644,-7.66141"
         inkscape:connector-curvature="0" />
      <path
         style="fill:none;stroke:#000000;stroke-width:0.77002442;overflow:visible"
         id="path2916"
         d="m -136.36074,453.50277 c 0,0 -9.98069,-6.32687 -11.45384,-13.98828"
         inkscape:connector-curvature="0" />
      <path
         style="fill:none;stroke:#000000;stroke-width:0.77002442;overflow:visible"
         id="path2918"
         d="m -151.35092,447.47159 7.36705,1.17877 c 0,0 -2.06187,3.24067 -4.41943,3.53635"
         inkscape:connector-curvature="0" />
      <path
         style="fill:none;stroke:#000000;stroke-width:0.77002442;overflow:visible"
         id="path2920"
         d="m -136.02544,447.1759 c 0,0 -2.94894,-5.30252 -4.41944,-6.48263"
         inkscape:connector-curvature="0" />
      <path
         style="fill:none;stroke:#000000;stroke-width:0.77002442;overflow:visible"
         id="path2922"
         d="m -136.04261,450.15123 c 0,0 2.96477,-7.10171 4.7336,-9.1636"
         inkscape:connector-curvature="0" />
      <path
         style="fill:none;stroke:#000000;stroke-width:0.77002442;overflow:visible"
         id="path2924"
         d="m -160.73496,478.73105 c -2.644,-4.18447 -4.17259,-9.14381 -4.17259,-14.46085 0,-14.97698 12.1429,-27.1159 27.11591,-27.1159 12.34089,0 22.75587,8.24354 26.03877,19.52708"
         inkscape:connector-curvature="0" />
      <path
         style="fill:none;stroke:#000000;stroke-width:0.77002442;overflow:visible"
         id="path2926"
         d="m -111.15359,458.72874 c 5.15601,-5.15732 12.280182,-8.3465 20.147514,-8.3465 12.847778,0 23.710249,8.50359 27.265072,20.18843"
         inkscape:connector-curvature="0" />
      <path
         style="fill:none;stroke:#000000;stroke-width:0.77002442;overflow:visible"
         id="path2928"
         d="m -90.07546,516.42959 0.930616,-35.07302 c 0,0 -0.61909,-7.74457 -0.61909,-9.91204 0,-2.16748 0.310205,-16.41581 0.310205,-16.41581"
         inkscape:connector-curvature="0" />
      <path
         style="fill:none;stroke:#000000;stroke-width:0.77002442;overflow:visible"
         id="path2930"
         d="m -89.589691,469.94366 c 0,0 5.400216,-8.71876 6.328189,-9.64937 0.930619,-0.92929 5.266889,-4.33627 5.575775,-5.88597"
         inkscape:connector-curvature="0" />
      <path
         style="fill:none;stroke:#000000;stroke-width:0.77002442;overflow:visible"
         id="path2932"
         d="m -82.330883,459.67389 c 0,-0.92667 0.619086,-6.50245 0.619086,-6.50245"
         inkscape:connector-curvature="0" />
      <path
         style="fill:none;stroke:#000000;stroke-width:0.77002442;overflow:visible"
         id="path2934"
         d="m -88.792398,481.11897 c 0,0 14.509693,-18.34568 15.131417,-19.27629"
         inkscape:connector-curvature="0" />
      <line
         style="fill:none;stroke:#000000;stroke-width:0.77002442;overflow:visible"
         id="line2936"
         y2="463.70184"
         x2="-67.466034"
         y1="468.35062"
         x1="-78.306442" />
      <path
         style="fill:none;stroke:#000000;stroke-width:0.77002442;overflow:visible"
         id="path2938"
         d="m -89.429969,493.09026 c 0,0 16.699608,-10.49418 17.627589,-12.04522 0.929295,-1.54706 5.885976,-11.45911 5.885976,-11.45911"
         inkscape:connector-curvature="0" />
      <path
         style="fill:none;stroke:#000000;stroke-width:0.77002442;overflow:visible"
         id="path2940"
         d="m -74.425268,483.67322 c 1.239496,-0.31021 6.687229,-0.25081 11.332395,-2.10808"
         inkscape:connector-curvature="0" />
      <path
         style="fill:none;stroke:#000000;stroke-width:0.77002442;overflow:visible"
         id="path2942"
         d="m -89.765255,493.1259 c 0,0 -16.723365,-9.29164 -17.655305,-11.76933"
         inkscape:connector-curvature="0" />
      <line
         style="fill:none;stroke:#000000;stroke-width:0.77002442;overflow:visible"
         id="line2944"
         y2="490.0314"
         x2="-102.77487"
         y1="489.25793"
         x1="-96.772575" />
      <path
         style="fill:none;stroke:#000000;stroke-width:0.77002442;overflow:visible"
         id="path2946"
         d="m -89.144844,481.35657 c 0,0 -9.29032,-8.67255 -8.673869,-18.27439"
         inkscape:connector-curvature="0" />
      <path
         style="fill:none;stroke:#000000;stroke-width:0.77002442;overflow:visible"
         id="path2948"
         d="m -96.613534,470.58255 c 0,0 -7.397406,-3.4743 -7.707606,-5.33289 -0.31021,-1.85728 -2.7879,-10.52982 -2.7879,-10.52982"
         inkscape:connector-curvature="0" />
      <path
         style="fill:none;stroke:#000000;stroke-width:0.77002442;overflow:visible"
         id="path2950"
         d="m -104.32114,465.24966 c 0,0 -6.19619,-1.23951 -7.43437,-3.71719"
         inkscape:connector-curvature="0" />
      <path
         style="fill:none;stroke:#000000;stroke-width:0.77002442;overflow:visible"
         id="path2952"
         d="m -102.20119,467.71018 c 0,0 -2.73773,1.25666 -3.97723,0.63888"
         inkscape:connector-curvature="0" />
      <path
         style="fill:none;stroke:#000000;stroke-width:0.77002442;overflow:visible"
         id="path2954"
         d="m -136.16934,490.28125 c 0,0 7.37365,-7.37497 10.05594,-8.71611 2.68229,-1.33983 12.73822,-4.69268 12.73822,-4.69268"
         inkscape:connector-curvature="0" />
      <line
         style="fill:none;stroke:#000000;stroke-width:0.77002442;overflow:visible"
         id="line2956"
         y2="475.52921"
         x2="-118.73939"
         y1="481.56372"
         x1="-126.11134" />
      <path
         style="fill:none;stroke:#000000;stroke-width:0.77002442;overflow:visible"
         id="path2958"
         d="m -33.116472,485.91461 c 6.365146,-3.62214 10.659183,-10.4691 10.659183,-18.31663 0,-11.63073 -9.430247,-21.05833 -21.058329,-21.05833 -10.931103,0 -19.919138,8.32935 -20.959324,18.98852"
         inkscape:connector-curvature="0" />
      <path
         style="fill:none;stroke:#000000;stroke-width:0.77002442;overflow:visible"
         id="path2960"
         d="m -44.204668,513.148 -0.686411,-43.71783 c 0,0 0.459372,-5.72363 0.459372,-7.32613 0,-1.60118 -0.229686,-12.12969 -0.229686,-12.12969"
         inkscape:connector-curvature="0" />
      <path
         style="fill:none;stroke:#000000;stroke-width:0.77002442;overflow:visible"
         id="path2962"
         d="m -44.57427,461.16551 c 0,0 -3.979876,-6.61332 -4.666287,-7.30105 -0.687726,-0.68773 -3.891429,-3.20634 -4.121107,-4.34947"
         inkscape:connector-curvature="0" />
      <path
         style="fill:none;stroke:#000000;stroke-width:0.77002442;overflow:visible"
         id="path2964"
         d="m -49.926969,453.40641 c 0,-0.68641 -0.456725,-4.8062 -0.456725,-4.8062"
         inkscape:connector-curvature="0" />
      <path
         style="fill:none;stroke:#000000;stroke-width:0.77002442;overflow:visible"
         id="path2966"
         d="m -44.893717,469.30609 c 0,0 -10.981276,-13.60944 -11.44064,-14.29585"
         inkscape:connector-curvature="0" />
      <line
         style="fill:none;stroke:#000000;stroke-width:0.77002442;overflow:visible"
         id="line2968"
         y2="456.38629"
         x2="-60.911854"
         y1="460.52747"
         x1="-52.238728" />
      <path
         style="fill:none;stroke:#000000;stroke-width:0.77002442;overflow:visible"
         id="path2970"
         d="m -45.118128,477.67107 c 0,0 -11.901316,-7.32612 -12.589051,-8.47059 -0.687735,-1.14445 -4.350801,-8.47058 -4.350801,-8.47058"
         inkscape:connector-curvature="0" />
      <path
         style="fill:none;stroke:#000000;stroke-width:0.77002442;overflow:visible"
         id="path2972"
         d="m -47.488885,476.47645 c -0.916098,-0.22705 -13.506473,-2.05923 -16.93853,-3.43338"
         inkscape:connector-curvature="0" />
      <path
         style="fill:none;stroke:#000000;stroke-width:0.77002442;overflow:visible"
         id="path2974"
         d="m -44.414547,489.89845 c -2.060558,-1.14315 -13.292632,-7.19281 -13.292632,-7.19281 l -2.518607,-4.11979"
         inkscape:connector-curvature="0" />
      <path
         style="fill:none;stroke:#000000;stroke-width:0.77002442;overflow:visible"
         id="path2976"
         d="m -51.598116,485.74697 c 0,0 -8.399306,1.07845 -10.688226,1.07845"
         inkscape:connector-curvature="0" />
      <path
         style="fill:none;stroke:#000000;stroke-width:0.77002442;overflow:visible"
         id="path2978"
         d="m -44.431707,478.1278 c 0,0 12.359365,-6.86808 13.0471,-8.69763"
         inkscape:connector-curvature="0" />
      <line
         style="fill:none;stroke:#000000;stroke-width:0.77002442;overflow:visible"
         id="line2980"
         y2="475.83533"
         x2="-34.819973"
         y1="475.215"
         x1="-38.989357" />
      <polyline
         transform="matrix(0.95777672,0,0,0.95777672,-167.27434,436.65797)"
         style="fill:none;stroke:#000000;stroke-width:0.80397046;overflow:visible"
         id="polyline2982"
         points="128.276,47.92 134.233,48.794 138.295,44.732 " />
      <line
         style="fill:none;stroke:#000000;stroke-width:0.77002442;overflow:visible"
         id="line2984"
         y2="483.85184"
         x2="-34.360741"
         y1="483.75516"
         x1="-38.509968" />
      <path
         style="fill:none;stroke:#000000;stroke-width:0.77002442;overflow:visible"
         id="path2986"
         d="m -44.891079,469.43017 c 0,0 6.868075,-6.41003 6.410034,-13.50648"
         inkscape:connector-curvature="0" />
      <path
         style="fill:none;stroke:#000000;stroke-width:0.77002442;overflow:visible"
         id="path2988"
         d="m -39.147658,461.16551 c 0,0 5.244445,-2.26516 5.472816,-3.63799 0.229678,-1.37282 2.059235,-7.78286 2.059235,-7.78286"
         inkscape:connector-curvature="0" />
      <path
         style="fill:none;stroke:#000000;stroke-width:0.77002442;overflow:visible"
         id="path2990"
         d="m -33.674842,457.52752 c 0,0 4.579155,-0.91609 5.49393,-2.74828"
         inkscape:connector-curvature="0" />
      <path
         style="fill:none;stroke:#000000;stroke-width:0.77002442;overflow:visible"
         id="path2992"
         d="m -35.157231,459.40856 c 0,0 1.940429,0.86461 2.855213,0.40788"
         inkscape:connector-curvature="0" />
      <line
         style="fill:none;stroke:#000000;stroke-width:0.77002442;overflow:visible"
         id="line2994"
         y2="464.99899"
         x2="-31.484461"
         y1="473.29745"
         x1="-36.592461" />
      <line
         style="fill:none;stroke:#000000;stroke-width:0.77002442;overflow:visible"
         id="line2996"
         y2="485.431"
         x2="-26.376467"
         y1="491.64273"
         x1="-26.867933" />
      <g
         transform="matrix(0.95777672,0,0,0.95777672,56.181745,361.91431)"
         id="g3163"
         style="overflow:visible">
        <path
           d="m 166.36043,124.559 c -1.887,-0.621 -7.386,-4.197 -11.029,-6.014 -2.452,-1.223 -6.446,-2.788 -8.983,-3.803 -1.408,-0.563 -4.017,-1.322 -5.267,-2.197 -0.347,-0.242 -1.368,-1.422 -1.824,-1.512 -0.671,-0.133 -0.106,1.288 0.022,1.612 0.903,2.259 2.82,4.163 4.753,5.572 0.447,0.323 1.604,0.681 1.866,1.048 0.374,0.516 0.146,1.335 0.394,1.955 1.274,3.193 6.02,6.963 9.493,6.947"
           id="path2998"
           style="fill:#fc0019"
           inkscape:connector-curvature="0" />
        <path
           d="m 169.99743,136.754 c -4.111,3.134 -10.204,1.5 -14.817,2.625 -3.298,0.806 -6.859,2.26 -9.727,4.076 -2.586,1.639 -5.373,3.098 -8.101,4.505 -1.624,0.839 -5.12,3.692 -7.014,3.13 -0.572,-0.173 -0.484,-0.477 -0.899,-0.764 -0.288,-0.199 -0.866,-0.335 -1.127,-0.557 -1.244,-1.07 0.082,-1.491 1.13,-1.896 5.718,-2.194 11.669,-5.711 15.808,-10.253 3.442,-3.779 6.632,-7.054 11.184,-9.543 2.15,-1.174 4.277,-2.58 6.532,-3.525 1.626,-0.676 3.503,-0.758 5.238,-0.836 1.167,-0.055 1.954,0.013 2.192,-1.26 0.289,-1.592 -3.172,-2.332 -3.816,-3.453 1.356,0.396 3.824,0.279 4.797,0.358 2.787,0.225 3.951,0.442 5.703,2.225 1.084,1.105 2.792,4.616 3.086,6.005 -1.836,-0.005 -4.142,-0.615 -4.419,-0.338 -1.167,1.166 -0.5,2.5 -1.167,4.166 -0.795,1.986 -2.874,4.034 -4.583,5.335 z"
           id="path3000"
           style="fill:#fc0019"
           inkscape:connector-curvature="0" />
        <path
           d="m 165.78043,126.719 c -1.886,-0.087 -4.111,-1.036 -5.867,-1.744 -3.291,-1.328 -6.654,-2.453 -10.099,-3.308 -4.04,-1.009 -8.011,-1.647 -12.159,-2.015 -3.124,-0.277 -5.668,-0.64 -7.836,-0.762 -1.051,-0.059 -3.586,-0.687 -4.641,-0.51 -0.825,0.135 1.714,2.33 2.047,2.57 2.582,1.863 11.945,6.751 14.273,7.365 1.776,0.465 3.617,0.518 5.361,0.899 -0.861,2.311 4.885,2.685 6.285,2.841 -1.127,1.674 0.51,1.905 1.925,2.124 1.79,0.274 3.282,-0.537 5.019,-0.826 1.219,-0.2 2.438,-0.384 3.656,-0.571"
           id="path3002"
           style="fill:#fc0019"
           inkscape:connector-curvature="0" />
      </g>
      <g
         transform="matrix(1.051676,0,0,1.051676,24.918316,-123.68253)"
         id="g3455">
        <g
           style="overflow:visible"
           id="g3276"
           transform="matrix(0.91071464,0,0,0.91071464,-106.31946,532.4356)">
          <path
             id="path3012"
             d="m -34.763191,121.45568 -1.449,0 -0.917,-1.781 -5.364,0 -0.916,1.781 -1.441,0 4.213,-7.961 1.661,0 4.213,7.961 z m -3.007,-2.977 -2.028,-3.848 -2.045,3.848 4.073,0 z"
             inkscape:connector-curvature="0" />
          <path
             id="path3014"
             d="m -27.440191,116.36268 c -0.881,-0.459 -1.838,-0.688 -2.873,-0.688 -1.505,0 -2.257,0.268 -2.257,0.803 0,0.315 0.282,0.521 0.847,0.616 0.77,0.066 1.541,0.136 2.311,0.209 1.108,0.11 1.896,0.308 2.366,0.594 0.521,0.315 0.781,0.795 0.781,1.44 0,0.726 -0.324,1.287 -0.973,1.682 -0.649,0.396 -1.589,0.594 -2.82,0.594 -1.737,0 -3.126,-0.396 -4.167,-1.189 l 0.714,-0.936 c 0.93,0.656 2.073,0.984 3.429,0.984 0.762,0 1.352,-0.097 1.77,-0.292 0.418,-0.195 0.626,-0.453 0.626,-0.776 0,-0.359 -0.256,-0.612 -0.77,-0.759 -0.286,-0.081 -0.729,-0.136 -1.33,-0.165 -0.938,-0.044 -1.513,-0.077 -1.726,-0.099 -0.835,-0.081 -1.451,-0.26 -1.847,-0.539 -0.396,-0.279 -0.594,-0.686 -0.594,-1.222 0,-0.646 0.317,-1.157 0.952,-1.535 0.634,-0.378 1.524,-0.567 2.668,-0.567 1.526,0 2.762,0.33 3.708,0.988 l -0.815,0.857 z"
             inkscape:connector-curvature="0" />
          <path
             id="path3016"
             d="m -18.486191,116.36268 c -0.881,-0.459 -1.838,-0.688 -2.873,-0.688 -1.505,0 -2.257,0.268 -2.257,0.803 0,0.315 0.282,0.521 0.847,0.616 0.77,0.066 1.541,0.136 2.311,0.209 1.108,0.11 1.896,0.308 2.366,0.594 0.521,0.315 0.781,0.795 0.781,1.44 0,0.726 -0.324,1.287 -0.973,1.682 -0.649,0.396 -1.589,0.594 -2.82,0.594 -1.737,0 -3.126,-0.396 -4.167,-1.189 l 0.714,-0.936 c 0.93,0.656 2.073,0.984 3.429,0.984 0.762,0 1.352,-0.097 1.77,-0.292 0.418,-0.195 0.626,-0.453 0.626,-0.776 0,-0.359 -0.256,-0.612 -0.77,-0.759 -0.286,-0.081 -0.729,-0.136 -1.33,-0.165 -0.938,-0.044 -1.513,-0.077 -1.726,-0.099 -0.835,-0.081 -1.451,-0.26 -1.847,-0.539 -0.396,-0.279 -0.594,-0.686 -0.594,-1.222 0,-0.646 0.317,-1.157 0.952,-1.535 0.634,-0.378 1.524,-0.567 2.668,-0.567 1.526,0 2.762,0.33 3.708,0.988 l -0.815,0.857 z"
             inkscape:connector-curvature="0" />
          <path
             id="path3018"
             d="m -6.9861906,118.05768 c 0,1.106 -0.473,2.008 -1.419,2.704 -0.807,0.593 -1.8150004,0.89 -3.0250004,0.89 -1.21,0 -2.222,-0.297 -3.036,-0.89 -0.946,-0.689 -1.419,-1.59 -1.419,-2.704 0,-1.099 0.477,-1.993 1.43,-2.682 0.836,-0.608 1.844,-0.912 3.025,-0.912 1.173,0 2.1780004,0.304 3.0140004,0.912 0.954,0.696 1.43,1.59 1.43,2.682 z m -1.375,-0.002 c 0,-0.696 -0.286,-1.27 -0.857,-1.721 -0.572,-0.451 -1.3090004,-0.676 -2.2100004,-0.676 -0.909,0 -1.65,0.228 -2.226,0.682 -0.575,0.455 -0.863,1.026 -0.863,1.715 0,0.718 0.282,1.299 0.847,1.743 0.564,0.443 1.312,0.665 2.242,0.665 0.924,0 1.6660004,-0.222 2.2270004,-0.665 0.56,-0.444 0.84,-1.025 0.84,-1.743 z"
             inkscape:connector-curvature="0" />
          <path
             id="path3020"
             d="m 3.0138094,116.31868 -1.21,0.418 c -0.726,-0.719 -1.64599998,-1.078 -2.76099998,-1.078 -0.96000002,0 -1.72700002,0.222 -2.29900002,0.666 -0.572,0.444 -0.858,1.018 -0.858,1.722 0,0.726 0.286,1.309 0.858,1.749 0.572,0.44 1.346,0.66 2.32100002,0.66 1.129,0 2.04899998,-0.371 2.76099998,-1.112 l 1.133,0.606 c -0.997,1.124 -2.30599998,1.686 -3.92699998,1.686 -1.35000002,0 -2.44000002,-0.335 -3.27200002,-1.007 -0.833,-0.671 -1.249,-1.532 -1.249,-2.581 0,-1.093 0.473,-1.985 1.419,-2.674 0.821,-0.602 1.83,-0.902 3.025,-0.902 1.67900002,0 3.032,0.615 4.059,1.847 z"
             inkscape:connector-curvature="0" />
          <path
             id="path3022"
             d="m 6.1808094,121.45568 -1.32,0 0,-6.766 1.32,0 0,6.766 z"
             inkscape:connector-curvature="0" />
          <path
             id="path3024"
             d="m 16.396809,121.45568 -1.45,0 -0.774,-1.453 -4.5529996,0 -0.782,1.453 -1.45,0 3.6849996,-6.766 1.639,0 3.685,6.766 z m -2.893,-2.648 -1.603,-2.992 -1.621,2.992 3.224,0 z"
             inkscape:connector-curvature="0" />
          <path
             id="path3026"
             d="m 23.062809,115.88568 -3.233,0 0,5.57 -1.32,0 0,-5.57 -3.235,0 0,-1.195 7.788,0 0,1.195 z"
             inkscape:connector-curvature="0" />
          <path
             id="path3028"
             d="m 25.705809,121.45568 -1.32,0 0,-6.766 1.32,0 0,6.766 z"
             inkscape:connector-curvature="0" />
          <path
             id="path3030"
             d="m 36.507809,118.05768 c 0,1.106 -0.473,2.008 -1.419,2.704 -0.807,0.593 -1.815,0.89 -3.025,0.89 -1.21,0 -2.222,-0.297 -3.036,-0.89 -0.946,-0.689 -1.419,-1.59 -1.419,-2.704 0,-1.099 0.477,-1.993 1.43,-2.682 0.836,-0.608 1.844,-0.912 3.025,-0.912 1.173,0 2.178,0.304 3.014,0.912 0.953,0.696 1.43,1.59 1.43,2.682 z m -1.375,-0.002 c 0,-0.696 -0.286,-1.27 -0.857,-1.721 -0.572,-0.451 -1.309,-0.676 -2.21,-0.676 -0.909,0 -1.65,0.228 -2.226,0.682 -0.575,0.455 -0.863,1.026 -0.863,1.715 0,0.718 0.282,1.299 0.847,1.743 0.564,0.443 1.312,0.665 2.242,0.665 0.924,0 1.666,-0.222 2.227,-0.665 0.559,-0.444 0.84,-1.025 0.84,-1.743 z"
             inkscape:connector-curvature="0" />
          <path
             id="path3032"
             d="m 46.300809,121.45568 -1.973,0 -4.598,-5.643 0,5.643 -1.32,0 0,-6.766 1.967,0 4.603,5.649 0,-5.649 1.32,0 0,6.766 10e-4,0 z"
             inkscape:connector-curvature="0" />
        </g>
        <g
           style="overflow:visible"
           id="g3261"
           transform="matrix(0.91071464,0,0,0.91071464,-22.883155,520.57558)">
          <path
             id="path3034"
             d="m -32.197113,128.30668 -1.199,0.43 c -0.807,-0.859 -1.937,-1.288 -3.388,-1.288 -1.1,0 -1.997,0.282 -2.689,0.847 -0.692,0.565 -1.04,1.283 -1.04,2.156 0,0.902 0.343,1.629 1.028,2.183 0.686,0.553 1.612,0.83 2.778,0.83 1.408,0 2.515,-0.436 3.322,-1.307 l 1.133,0.626 c -0.572,0.667 -1.219,1.149 -1.941,1.446 -0.722,0.297 -1.586,0.445 -2.59,0.445 -1.408,0 -2.578,-0.352 -3.509,-1.056 -1.063,-0.807 -1.595,-1.863 -1.595,-3.168 0,-1.284 0.539,-2.333 1.617,-3.146 0.938,-0.711 2.101,-1.067 3.487,-1.067 1.993,-10e-4 3.522,0.689 4.586,2.069 z"
             inkscape:connector-curvature="0" />
          <path
             id="path3036"
             d="m -22.070113,131.05768 c 0,1.106 -0.473,2.008 -1.419,2.704 -0.807,0.593 -1.815,0.89 -3.025,0.89 -1.21,0 -2.222,-0.297 -3.036,-0.89 -0.946,-0.689 -1.419,-1.59 -1.419,-2.704 0,-1.099 0.477,-1.993 1.43,-2.682 0.836,-0.608 1.844,-0.912 3.024,-0.912 1.173,0 2.178,0.304 3.014,0.912 0.954,0.696 1.431,1.59 1.431,2.682 z m -1.375,-0.002 c 0,-0.696 -0.286,-1.27 -0.857,-1.721 -0.571,-0.451 -1.308,-0.676 -2.209,-0.676 -0.909,0 -1.651,0.228 -2.227,0.682 -0.575,0.455 -0.863,1.026 -0.863,1.715 0,0.718 0.282,1.299 0.846,1.743 0.564,0.443 1.312,0.665 2.243,0.665 0.923,0 1.665,-0.222 2.226,-0.665 0.56,-0.444 0.841,-1.025 0.841,-1.743 z"
             inkscape:connector-curvature="0" />
          <path
             id="path3038"
             d="m -10.675113,134.45568 -1.32,0 -0.032,-5.566 -3.399,4.609 -3.388,-4.653 -0.033,0.044 0,5.566 -1.32,0 0,-6.766 1.98,0 2.762,3.833 2.768,-3.833 1.982,0 0,6.766 0,0 z"
             inkscape:connector-curvature="0" />
          <path
             id="path3040"
             d="m 1.126887,134.45568 -1.32,0 -0.032,-5.566 -3.399,4.609 -3.388,-4.653 -0.033,0.044 0,5.566 -1.32,0 0,-6.766 1.98,0 2.762,3.833 2.768,-3.833 1.982,0 0,6.766 0,0 z"
             inkscape:connector-curvature="0" />
          <path
             id="path3042"
             d="m 11.226887,132.23168 c 0,0.711 -0.356,1.292 -1.067,1.743 -0.711,0.451 -1.665,0.676 -2.861,0.676 -1.203,0 -2.16,-0.226 -2.872,-0.676 -0.712,-0.45 -1.067,-1.032 -1.067,-1.743 l 0,-4.542 1.32,0 0,4.278 c 0,0.997 0.873,1.496 2.619,1.496 1.739,0 2.608,-0.499 2.608,-1.496 l 0,-4.278 1.32,0 0,4.542 z"
             inkscape:connector-curvature="0" />
          <path
             id="path3044"
             d="m 21.349887,134.45568 -1.973,0 -4.598,-5.643 0,5.643 -1.32,0 0,-6.766 1.968,0 4.603,5.649 0,-5.649 1.32,0 0,6.766 z"
             inkscape:connector-curvature="0" />
          <path
             id="path3046"
             d="m 31.561887,134.45568 -1.45,0 -0.773,-1.453 -4.553,0 -0.783,1.453 -1.45,0 3.685,-6.766 1.639,0 3.685,6.766 z m -2.893,-2.648 -1.603,-2.992 -1.621,2.992 3.224,0 z"
             inkscape:connector-curvature="0" />
          <path
             id="path3048"
             d="m 40.563887,132.23168 c 0,0.711 -0.356,1.292 -1.067,1.743 -0.711,0.451 -1.665,0.676 -2.861,0.676 -1.203,0 -2.16,-0.226 -2.872,-0.676 -0.712,-0.451 -1.067,-1.032 -1.067,-1.743 l 0,-4.542 1.32,0 0,4.278 c 0,0.997 0.873,1.496 2.619,1.496 1.739,0 2.608,-0.499 2.608,-1.496 l 0,-4.278 1.32,0 0,4.542 z"
             inkscape:connector-curvature="0" />
          <path
             id="path3050"
             d="m 49.590887,128.88568 -3.233,0 0,5.57 -1.32,0 0,-5.57 -3.234,0 0,-1.195 7.788,0 0,1.195 -10e-4,0 z"
             inkscape:connector-curvature="0" />
          <path
             id="path3052"
             d="m 57.476887,134.45568 -1.45,0 -0.774,-1.453 -4.552,0 -0.782,1.453 -1.45,0 3.685,-6.766 1.639,0 3.684,6.766 z m -2.892,-2.648 -1.603,-2.992 -1.621,2.992 3.224,0 z"
             inkscape:connector-curvature="0" />
          <path
             id="path3054"
             d="m 60.010887,134.45568 -1.32,0 0,-6.766 1.32,0 0,6.766 z"
             inkscape:connector-curvature="0" />
          <path
             id="path3056"
             d="m 70.284887,134.45568 -1.516,0 -1.77,-2.484 -3.358,0 0,2.484 -1.32,0 0,-6.766 5.467,0 c 0.718,0 1.29,0.194 1.716,0.583 0.425,0.389 0.638,0.91 0.638,1.562 0,1.123 -0.561,1.808 -1.683,2.057 l 1.826,2.564 z m -2.695,-3.68 c 0.799,0 1.199,-0.306 1.199,-0.918 0,-0.648 -0.425,-0.973 -1.276,-0.973 l -3.872,0 0,1.891 3.949,0 0,0 z"
             inkscape:connector-curvature="0" />
          <path
             id="path3058"
             d="m 79.436887,134.45568 -7.282,0 0,-6.766 7.029,0 0,1.195 -5.709,0 0,1.453 3.971,0 0,1.195 -3.971,0 0,1.727 5.962,0 0,1.196 0,0 z"
             inkscape:connector-curvature="0" />
        </g>
      </g>
      <g
         transform="matrix(1.051676,0,0,1.051676,-26.846208,-131.93591)"
         id="g3349">
        <g
           transform="matrix(0.91071464,0,0,0.91071464,-54.408337,491.1166)"
           id="g3201">
          <path
             id="path3064"
             d="m 199.411,169.271 -1.199,0.429 c -0.807,-0.858 -1.937,-1.288 -3.389,-1.288 -1.1,0 -1.996,0.282 -2.689,0.847 -0.692,0.565 -1.039,1.283 -1.039,2.156 0,0.902 0.343,1.629 1.028,2.183 0.686,0.554 1.612,0.831 2.778,0.831 1.407,0 2.515,-0.436 3.321,-1.307 l 1.133,0.626 c -0.571,0.667 -1.219,1.149 -1.941,1.446 -0.722,0.297 -1.586,0.445 -2.591,0.445 -1.408,0 -2.577,-0.352 -3.509,-1.056 -1.063,-0.807 -1.595,-1.863 -1.595,-3.168 0,-1.284 0.539,-2.332 1.617,-3.146 0.938,-0.711 2.101,-1.067 3.486,-1.067 1.996,0 3.525,0.69 4.589,2.069 z"
             inkscape:connector-curvature="0" />
          <path
             id="path3066"
             d="m 209.538,172.022 c 0,1.106 -0.474,2.007 -1.42,2.704 -0.807,0.594 -1.814,0.89 -3.024,0.89 -1.21,0 -2.222,-0.296 -3.036,-0.89 -0.945,-0.688 -1.418,-1.59 -1.418,-2.704 0,-1.099 0.477,-1.993 1.43,-2.682 0.836,-0.608 1.844,-0.912 3.024,-0.912 1.173,0 2.178,0.304 3.014,0.912 0.954,0.697 1.43,1.59 1.43,2.682 z m -1.375,-0.001 c 0,-0.696 -0.286,-1.27 -0.857,-1.721 -0.572,-0.451 -1.309,-0.676 -2.21,-0.676 -0.909,0 -1.651,0.227 -2.227,0.682 -0.576,0.455 -0.862,1.026 -0.862,1.715 0,0.718 0.281,1.299 0.846,1.743 0.565,0.444 1.312,0.665 2.243,0.665 0.923,0 1.665,-0.222 2.226,-0.665 0.561,-0.443 0.841,-1.025 0.841,-1.743 z"
             inkscape:connector-curvature="0" />
          <path
             id="path3068"
             d="m 220.933,175.42 -1.32,0 -0.031,-5.566 -3.399,4.609 -3.388,-4.653 -0.033,0.044 0,5.566 -1.32,0 0,-6.766 1.98,0 2.762,3.833 2.768,-3.833 1.982,0 0,6.766 -0.001,0 z"
             inkscape:connector-curvature="0" />
          <path
             id="path3070"
             d="m 232.735,175.42 -1.32,0 -0.031,-5.566 -3.399,4.609 -3.388,-4.653 -0.033,0.044 0,5.566 -1.32,0 0,-6.766 1.98,0 2.762,3.833 2.768,-3.833 1.982,0 0,6.766 -10e-4,0 z"
             inkscape:connector-curvature="0" />
          <path
             id="path3072"
             d="m 242.835,173.196 c 0,0.711 -0.355,1.292 -1.066,1.743 -0.712,0.451 -1.666,0.676 -2.861,0.676 -1.203,0 -2.16,-0.225 -2.871,-0.676 -0.712,-0.451 -1.068,-1.032 -1.068,-1.743 l 0,-4.542 1.32,0 0,4.278 c 0,0.997 0.873,1.496 2.619,1.496 1.738,0 2.607,-0.499 2.607,-1.496 l 0,-4.278 1.32,0 0,4.542 0,0 z"
             inkscape:connector-curvature="0" />
          <path
             id="path3074"
             d="m 252.958,175.42 -1.973,0 -4.598,-5.643 0,5.643 -1.32,0 0,-6.766 1.968,0 4.603,5.649 0,-5.649 1.32,0 0,6.766 0,0 z"
             inkscape:connector-curvature="0" />
          <path
             id="path3076"
             d="m 256.585,175.42 -1.32,0 0,-6.766 1.32,0 0,6.766 z"
             inkscape:connector-curvature="0" />
          <path
             id="path3078"
             d="m 265.688,169.85 -3.232,0 0,5.57 -1.32,0 0,-5.57 -3.234,0 0,-1.195 7.787,0 0,1.195 -0.001,0 z"
             inkscape:connector-curvature="0" />
          <path
             id="path3080"
             d="m 275.194,168.655 -3.85,4.104 0,2.662 -1.32,0 0,-2.662 -3.828,-4.104 1.613,0 2.887,3.083 2.891,-3.083 1.607,0 0,0 z"
             inkscape:connector-curvature="0" />
        </g>
        <g
           transform="matrix(0.91071464,0,0,0.91071464,31.48916,479.29826)"
           id="g3188">
          <path
             id="path3082"
             d="m 193.036,188.42 -1.449,0 -0.917,-1.781 -5.364,0 -0.916,1.781 -1.441,0 4.214,-7.961 1.661,0 4.212,7.961 z m -3.008,-2.976 -2.027,-3.848 -2.045,3.848 4.072,0 z"
             inkscape:connector-curvature="0" />
          <path
             id="path3084"
             d="m 200.358,183.327 c -0.88,-0.458 -1.838,-0.688 -2.873,-0.688 -1.504,0 -2.256,0.268 -2.256,0.803 0,0.315 0.281,0.521 0.847,0.616 0.771,0.066 1.54,0.136 2.311,0.209 1.108,0.11 1.896,0.308 2.366,0.594 0.521,0.315 0.781,0.795 0.781,1.44 0,0.726 -0.325,1.286 -0.974,1.682 -0.649,0.396 -1.589,0.594 -2.82,0.594 -1.737,0 -3.126,-0.396 -4.167,-1.189 l 0.714,-0.937 c 0.931,0.657 2.073,0.985 3.429,0.985 0.762,0 1.352,-0.097 1.77,-0.292 0.418,-0.195 0.627,-0.453 0.627,-0.776 0,-0.359 -0.257,-0.613 -0.77,-0.759 -0.286,-0.081 -0.729,-0.136 -1.33,-0.165 -0.938,-0.044 -1.514,-0.077 -1.727,-0.099 -0.835,-0.081 -1.451,-0.26 -1.847,-0.539 -0.396,-0.279 -0.593,-0.686 -0.593,-1.221 0,-0.646 0.316,-1.157 0.951,-1.535 0.635,-0.378 1.523,-0.567 2.668,-0.567 1.525,0 2.762,0.33 3.708,0.988 l -0.815,0.856 z"
             inkscape:connector-curvature="0" />
          <path
             id="path3086"
             d="m 209.313,183.327 c -0.881,-0.458 -1.839,-0.688 -2.873,-0.688 -1.505,0 -2.258,0.268 -2.258,0.803 0,0.315 0.283,0.521 0.848,0.616 0.771,0.066 1.541,0.136 2.311,0.209 1.107,0.11 1.896,0.308 2.365,0.594 0.521,0.315 0.781,0.795 0.781,1.44 0,0.726 -0.324,1.286 -0.973,1.682 -0.649,0.396 -1.589,0.594 -2.82,0.594 -1.737,0 -3.127,-0.396 -4.168,-1.189 l 0.715,-0.937 c 0.931,0.657 2.073,0.985 3.429,0.985 0.763,0 1.353,-0.097 1.77,-0.292 0.417,-0.195 0.626,-0.453 0.626,-0.776 0,-0.359 -0.256,-0.613 -0.77,-0.759 -0.285,-0.081 -0.729,-0.136 -1.33,-0.165 -0.938,-0.044 -1.513,-0.077 -1.725,-0.099 -0.836,-0.081 -1.451,-0.26 -1.848,-0.539 -0.396,-0.279 -0.594,-0.686 -0.594,-1.221 0,-0.646 0.317,-1.157 0.952,-1.535 0.635,-0.378 1.524,-0.567 2.668,-0.567 1.526,0 2.762,0.33 3.708,0.988 l -0.814,0.856 z"
             inkscape:connector-curvature="0" />
          <path
             id="path3088"
             d="m 220.813,185.022 c 0,1.106 -0.474,2.007 -1.42,2.704 -0.807,0.594 -1.814,0.89 -3.024,0.89 -1.21,0 -2.222,-0.296 -3.036,-0.89 -0.945,-0.688 -1.418,-1.59 -1.418,-2.704 0,-1.099 0.477,-1.993 1.43,-2.682 0.836,-0.608 1.844,-0.912 3.024,-0.912 1.173,0 2.178,0.304 3.014,0.912 0.954,0.697 1.43,1.59 1.43,2.682 z m -1.375,-0.001 c 0,-0.696 -0.286,-1.27 -0.857,-1.721 -0.572,-0.451 -1.309,-0.676 -2.21,-0.676 -0.909,0 -1.651,0.227 -2.227,0.682 -0.576,0.455 -0.862,1.026 -0.862,1.715 0,0.718 0.281,1.299 0.846,1.743 0.565,0.444 1.312,0.665 2.243,0.665 0.923,0 1.665,-0.222 2.226,-0.665 0.561,-0.443 0.841,-1.025 0.841,-1.743 z"
             inkscape:connector-curvature="0" />
          <path
             id="path3090"
             d="m 230.812,183.284 -1.21,0.417 c -0.727,-0.718 -1.646,-1.078 -2.761,-1.078 -0.961,0 -1.728,0.222 -2.3,0.666 -0.571,0.444 -0.857,1.018 -0.857,1.722 0,0.727 0.286,1.31 0.857,1.75 0.572,0.44 1.346,0.66 2.321,0.66 1.13,0 2.05,-0.371 2.761,-1.112 l 1.134,0.605 c -0.997,1.124 -2.307,1.686 -3.927,1.686 -1.35,0 -2.441,-0.335 -3.273,-1.007 -0.832,-0.672 -1.248,-1.532 -1.248,-2.581 0,-1.093 0.473,-1.984 1.419,-2.674 0.821,-0.602 1.829,-0.902 3.024,-0.902 1.681,0 3.034,0.616 4.06,1.848 z"
             inkscape:connector-curvature="0" />
          <path
             id="path3092"
             d="m 233.979,188.42 -1.32,0 0,-6.766 1.32,0 0,6.766 z"
             inkscape:connector-curvature="0" />
          <path
             id="path3094"
             d="m 244.195,188.42 -1.45,0 -0.773,-1.453 -4.553,0 -0.783,1.453 -1.449,0 3.685,-6.766 1.64,0 3.683,6.766 z m -2.892,-2.648 -1.603,-2.992 -1.621,2.992 3.224,0 z"
             inkscape:connector-curvature="0" />
          <path
             id="path3096"
             d="m 250.862,182.85 -3.234,0 0,5.57 -1.32,0 0,-5.57 -3.234,0 0,-1.195 7.789,0 0,1.195 -0.001,0 z"
             inkscape:connector-curvature="0" />
          <path
             id="path3098"
             d="m 253.505,188.42 -1.32,0 0,-6.766 1.32,0 0,6.766 z"
             inkscape:connector-curvature="0" />
          <path
             id="path3100"
             d="m 264.307,185.022 c 0,1.106 -0.474,2.007 -1.419,2.704 -0.807,0.594 -1.814,0.89 -3.025,0.89 -1.209,0 -2.221,-0.296 -3.035,-0.89 -0.946,-0.688 -1.419,-1.59 -1.419,-2.704 0,-1.099 0.477,-1.993 1.43,-2.682 0.836,-0.608 1.845,-0.912 3.024,-0.912 1.174,0 2.179,0.304 3.015,0.912 0.952,0.697 1.429,1.59 1.429,2.682 z m -1.375,-0.001 c 0,-0.696 -0.286,-1.27 -0.857,-1.721 -0.571,-0.451 -1.309,-0.676 -2.21,-0.676 -0.908,0 -1.65,0.227 -2.227,0.682 -0.574,0.455 -0.862,1.026 -0.862,1.715 0,0.718 0.282,1.299 0.847,1.743 0.565,0.444 1.312,0.665 2.242,0.665 0.924,0 1.666,-0.222 2.227,-0.665 0.561,-0.443 0.84,-1.025 0.84,-1.743 z"
             inkscape:connector-curvature="0" />
          <path
             id="path3102"
             d="m 274.1,188.42 -1.973,0 -4.598,-5.643 0,5.643 -1.32,0 0,-6.766 1.968,0 4.603,5.649 0,-5.649 1.32,0 0,6.766 z"
             inkscape:connector-curvature="0" />
        </g>
      </g>
      <path
         style="fill:#009eb8;fill-opacity:1"
         id="path7787"
         d="m -145.6363,567.88539 c 9.81625,0 139.6084068,-3.32531 159.240918,-3.93032 23.174546,-0.71387 33.228005,0.13107 37.084166,1.51163 6.27586,2.24771 -16.265517,4.62875 -6.544164,6.34947 12.307958,2.17832 34.82151,-1.45812 47.420706,-2.34295 24.331224,-1.70938 47.446834,-3.3226 72.283604,-4.31719 13.11287,-0.52475 27.88145,-0.63314 41.07123,-0.97873 11.89892,-0.31203 21.86241,-0.82679 33.91351,-0.82679 4.28971,0 20.82192,0.17551 25.08546,0.30205 1.44788,0.0431 -2.49986,0.16916 -1.08961,0.29389 1.94691,0.1728 -44.37279,1.12204 -80.71088,2.7212 -34.35689,1.51208 -51.29487,1.39327 -88.892748,5.59388 -36.537725,4.08182 -49.308673,4.11129 -58.89752,3.7793 -13.088327,-0.45353 -19.769937,-1.69939 -17.996478,-3.17473 2.727276,-2.26767 16.447146,-4.21742 7.412909,-5.22153 -15.5931162,-1.7325 -153.511493,1.44994 -183.015883,1.44994"
         inkscape:connector-curvature="0" />
    </g>
  </g>
</svg>
