<?xml version="1.0" encoding="UTF-8" standalone="no"?>
<svg
   xmlns:dc="http://purl.org/dc/elements/1.1/"
   xmlns:cc="http://creativecommons.org/ns#"
   xmlns:rdf="http://www.w3.org/1999/02/22-rdf-syntax-ns#"
   xmlns:svg="http://www.w3.org/2000/svg"
   xmlns="http://www.w3.org/2000/svg"
   xmlns:sodipodi="http://sodipodi.sourceforge.net/DTD/sodipodi-0.dtd"
   xmlns:inkscape="http://www.inkscape.org/namespaces/inkscape"
   width="4.7244096in"
   height="4.7244096in"
   viewBox="0 0 120 120"
   version="1.1"
   id="svg4126"
   inkscape:version="1.0.1 (1.0.1+r73)"
   sodipodi:docname="ccca_cardinal.svg"
   inkscape:export-filename="/home/martin/git/ccca/quickstart/static/images/ccca_cardinal.png"
   inkscape:export-xdpi="90.0355"
   inkscape:export-ydpi="90.0355">
  <defs
     id="defs4120" />
  <sodipodi:namedview
     id="base"
     pagecolor="#ffffff"
     bordercolor="#666666"
     borderopacity="1.0"
     inkscape:pageopacity="0.0"
     inkscape:pageshadow="2"
     inkscape:zoom="1.8520833"
     inkscape:cx="208.14399"
     inkscape:cy="226.77166"
     inkscape:document-units="mm"
     inkscape:current-layer="layer1"
     inkscape:document-rotation="0"
     showgrid="false"
     inkscape:window-width="1914"
     inkscape:window-height="1036"
     inkscape:window-x="1920"
     inkscape:window-y="33"
     inkscape:window-maximized="0"
     units="in"
     fit-margin-top="0"
     fit-margin-left="0"
     fit-margin-right="0"
     fit-margin-bottom="0" />
  <metadata
     id="metadata4123">
    <rdf:RDF>
      <cc:Work
         rdf:about="">
        <dc:format>image/svg+xml</dc:format>
        <dc:type
           rdf:resource="http://purl.org/dc/dcmitype/StillImage" />
        <dc:title></dc:title>
      </cc:Work>
    </rdf:RDF>
  </metadata>
  <g
     inkscape:label="Layer 1"
     inkscape:groupmode="layer"
     id="layer1"
     transform="translate(-137.92195,-43.80368)">
    <rect
       style="fill:#ffffff;fill-opacity:0;stroke-width:0.422721"
       id="rect4776"
       width="120"
       height="120"
       x="137.92195"
       y="43.80368" />
    <g
       id="g4738"
       transform="matrix(0.11999999,0,0,0.13208046,184.89236,80.523461)">
      <path
         d="m 358.2535,57.776442 c -34.21454,-11.2598 -133.92081,-76.09879 -199.97462,-109.0441 -44.45894,-22.17509 -116.877008,-50.551212 -162.8771278,-68.954902 -25.5294602,-10.20815 -72.8350802,-23.97012 -95.4997422,-39.83536 -6.29168,-4.38786 -24.80416,-25.78328 -33.07222,-27.41513 -12.16638,-2.41152 -1.92196,23.35364 0.39889,29.22831 16.37293,40.95952 51.131412,75.482302 86.180022,101.029872 8.10487,5.85654 29.08326,12.3477 33.83378,19.00204 6.7812402,9.35596 2.64721,24.20584 7.1438802,35.4474801 C 17.486152,55.129212 103.53926,123.48575 166.51068,123.19566"
         id="path2998"
         style="fill:#fc0019;stroke-width:18.1317"
         inkscape:connector-curvature="0" />
      <path
         d="m 424.19852,278.89263 c -74.53945,56.82478 -185.01596,27.19758 -268.65752,47.59574 -59.798398,14.61415 -124.365408,40.97766 -176.367148,73.90484 -46.88859,29.71787 -97.421672,56.17205 -146.884972,81.68336 -29.44589,15.21251 -92.83435,66.94231 -127.17582,56.7522 -10.37133,-3.13669 -8.77573,-8.6488 -16.30039,-13.8526 -5.22194,-3.60821 -15.70207,-6.0741 -20.43445,-10.09931 -22.55583,-19.40099 1.4868,-27.03441 20.48884,-34.37776 103.67711,-39.78095 211.578912,-103.55019 286.626072,-185.9044 62.40933,-68.51975 120.24947,-127.90109 202.785018,-173.03091 38.98318,-21.28663 77.54932,-46.779808 118.43634,-63.914278 29.48215,-12.25704 63.51537,-13.74383 94.97388,-15.1581 21.15971,-0.99725 35.42938,0.23571 39.7447,-22.84595 5.24008,-28.8656799 -57.51377,-42.28315 -69.1906,-62.6088 24.58659,7.18016 69.33567,5.05875 86.9778,6.49115 50.53314,4.07963 71.63845,8.01422 103.4051,40.3430501 19.6548,20.0355499 50.6238,83.6959799 55.9546,108.8809279 -33.2899,-0.0907 -75.10166,-11.15103 -80.12406,-6.12852 -21.1597,21.14156 -9.06589,45.32926 -21.1597,75.53669 -14.41482,36.00958 -52.11059,73.14332 -83.09769,96.73267 z"
         id="path3000"
         style="fill:#fc0019;stroke-width:18.1317"
         inkscape:connector-curvature="0" />
      <path
         d="M 347.73711,96.940922 C 313.54069,95.363482 273.19766,78.156492 241.35836,65.319222 181.68691,41.240322 120.70998,20.842142 58.246252,5.3395421 -15.005868,-12.955368 -87.006878,-24.523398 -162.21721,-31.195848 c -56.64346,-5.02249 -102.77054,-11.60431 -142.08008,-13.81638 -19.05643,-1.06977 -65.0203,-12.45648 -84.14925,-9.24717 -14.95866,2.44778 31.07775,42.24689 37.1156,46.5985001 46.81607,33.7793799 216.58327,122.4071679 258.793902,133.5400379 32.2019,8.43124 65.58237,9.39223 97.2040802,16.3004 -15.6114002,41.90238 88.5733898,48.68365 113.9577778,51.51218 -20.434428,30.3525 9.24719,34.54093 34.90355,38.51177 32.45577,4.96808 59.50828,-9.73675 91.00306,-14.97679 22.10253,-3.62636 44.20508,-6.96259 66.28953,-10.35323"
         id="path3002"
         style="fill:#fc0019;stroke-width:18.1317"
         inkscape:connector-curvature="0" />
    </g>
  </g>
</svg>
